M48
;GenerationSoftware,Autodesk,EAGLE,9.6.2*%
;CreationDate,2021-09-12T09:33:33Z*%
FMAT,2
ICI,OFF
METRIC,TZ,000.000
T6C0.350
T5C0.813
T4C0.914
T3C1.016
T2C1.550
T1C3.302
%
G90
M71
T1
X3608Y6243
X42520Y6243
T2
X35408Y7665
X32640Y7665
X29897Y7665
X27128Y7665
X24359Y7665
X21616Y7665
X18848Y7665
X16079Y7665
X10567Y7665
X34037Y4821
X31268Y4821
X28500Y4821
X25756Y4821
X22988Y4821
X20219Y4821
X17476Y4821
X14707Y4821
X11939Y4821
X13336Y7665
T3
X39520Y13836
X40765Y24387
X40765Y21847
X40765Y19307
X40765Y16767
X42060Y13836
X2413Y23241
X2413Y20701
T4
X27852Y36192
X27852Y38732
X25312Y36192
X25312Y38732
X22772Y36192
X22772Y38732
T5
X12573Y21082
X12573Y16256
T6
X24328Y19883
X17780Y30553
X32459Y22225
X17184Y18152
X16403Y17141
X17018Y16383
X18255Y16561
X31496Y17222
X30353Y14097
X14605Y13716
X23622Y19177
X17272Y20955
X20447Y11811
X23876Y11811
X22987Y17272
X31344Y14795
X38100Y21717
X29045Y24359
X29032Y19901
X26416Y30988
X16764Y11811
X33439Y22403
X30823Y22174
X43307Y23241
X37846Y11430
X23749Y31242
X38100Y18669
X31115Y9144
X34920Y34920
X28829Y16510
X7518Y34709
X18034Y23368
X21910Y17272
X29210Y18669
X28575Y26797
X30226Y33452
X23372Y22216
X21082Y19431
M30