G04 EAGLE Gerber RS-274X export*
G75*
%MOMM*%
%FSLAX34Y34*%
%LPD*%
%INTop Copper*%
%IPPOS*%
%AMOC8*
5,1,8,0,0,1.08239X$1,22.5*%
G01*
%ADD10R,1.475000X0.300000*%
%ADD11C,2.325000*%
%ADD12C,5.080000*%
%ADD13C,1.320800*%
%ADD14R,1.500000X1.300000*%
%ADD15C,1.524000*%
%ADD16P,1.539592X8X202.500000*%
%ADD17R,1.270000X1.879600*%
%ADD18R,1.300000X1.500000*%
%ADD19R,1.309600X0.618800*%
%ADD20C,0.200000*%
%ADD21C,0.756400*%
%ADD22C,0.190000*%
%ADD23C,0.508000*%
%ADD24C,0.406400*%
%ADD25C,0.254000*%
%ADD26C,0.609600*%

G36*
X451722Y8900D02*
X451722Y8900D01*
X451784Y8899D01*
X451861Y8919D01*
X451939Y8931D01*
X451996Y8956D01*
X452057Y8973D01*
X452124Y9014D01*
X452196Y9047D01*
X452243Y9088D01*
X452297Y9120D01*
X452350Y9179D01*
X452410Y9230D01*
X452444Y9283D01*
X452487Y9329D01*
X452521Y9400D01*
X452564Y9466D01*
X452583Y9526D01*
X452610Y9583D01*
X452622Y9653D01*
X452647Y9736D01*
X452648Y9819D01*
X452659Y9887D01*
X452782Y50918D01*
X452773Y50978D01*
X452775Y51038D01*
X452754Y51116D01*
X452743Y51197D01*
X452718Y51252D01*
X452702Y51310D01*
X452661Y51380D01*
X452627Y51454D01*
X452588Y51500D01*
X452557Y51552D01*
X452497Y51607D01*
X452444Y51669D01*
X452394Y51702D01*
X452350Y51743D01*
X452277Y51780D01*
X452209Y51824D01*
X452151Y51842D01*
X452097Y51869D01*
X452017Y51884D01*
X451939Y51907D01*
X451879Y51908D01*
X451820Y51919D01*
X451739Y51911D01*
X451657Y51912D01*
X451599Y51896D01*
X451539Y51890D01*
X451464Y51859D01*
X451385Y51838D01*
X451334Y51806D01*
X451278Y51783D01*
X451214Y51733D01*
X451145Y51690D01*
X451104Y51646D01*
X451057Y51608D01*
X451015Y51548D01*
X450955Y51482D01*
X450920Y51410D01*
X450882Y51354D01*
X449697Y48893D01*
X448027Y46236D01*
X446070Y43782D01*
X443852Y41564D01*
X441398Y39607D01*
X438741Y37937D01*
X435913Y36576D01*
X432951Y35539D01*
X429892Y34841D01*
X427203Y34538D01*
X427203Y61430D01*
X427194Y61493D01*
X427195Y61558D01*
X427174Y61632D01*
X427163Y61709D01*
X427137Y61768D01*
X427120Y61830D01*
X427079Y61896D01*
X427047Y61966D01*
X427005Y62015D01*
X426972Y62070D01*
X426914Y62121D01*
X426864Y62180D01*
X426810Y62216D01*
X426762Y62259D01*
X426693Y62292D01*
X426628Y62335D01*
X426566Y62354D01*
X426509Y62382D01*
X426439Y62392D01*
X426358Y62417D01*
X426273Y62418D01*
X426204Y62429D01*
X425203Y62429D01*
X425203Y62431D01*
X426204Y62431D01*
X426268Y62440D01*
X426332Y62439D01*
X426407Y62460D01*
X426483Y62471D01*
X426542Y62497D01*
X426604Y62514D01*
X426670Y62555D01*
X426740Y62587D01*
X426789Y62629D01*
X426844Y62662D01*
X426896Y62720D01*
X426954Y62770D01*
X426990Y62824D01*
X427033Y62872D01*
X427066Y62941D01*
X427109Y63006D01*
X427128Y63068D01*
X427156Y63126D01*
X427166Y63195D01*
X427191Y63276D01*
X427192Y63361D01*
X427203Y63430D01*
X427203Y90322D01*
X429892Y90019D01*
X432951Y89321D01*
X435913Y88284D01*
X438741Y86923D01*
X441398Y85253D01*
X443852Y83296D01*
X446070Y81078D01*
X448027Y78624D01*
X449697Y75967D01*
X450951Y73364D01*
X450982Y73316D01*
X451006Y73264D01*
X451061Y73199D01*
X451108Y73129D01*
X451152Y73092D01*
X451189Y73049D01*
X451259Y73002D01*
X451324Y72948D01*
X451376Y72925D01*
X451424Y72894D01*
X451505Y72869D01*
X451582Y72835D01*
X451639Y72827D01*
X451694Y72810D01*
X451778Y72809D01*
X451862Y72798D01*
X451918Y72807D01*
X451976Y72806D01*
X452057Y72828D01*
X452140Y72841D01*
X452192Y72865D01*
X452248Y72880D01*
X452320Y72924D01*
X452396Y72960D01*
X452439Y72998D01*
X452488Y73028D01*
X452545Y73090D01*
X452608Y73145D01*
X452639Y73194D01*
X452678Y73236D01*
X452715Y73312D01*
X452760Y73383D01*
X452776Y73438D01*
X452802Y73490D01*
X452813Y73564D01*
X452840Y73654D01*
X452840Y73730D01*
X452850Y73794D01*
X453376Y249634D01*
X453359Y249754D01*
X453348Y249874D01*
X453340Y249893D01*
X453337Y249913D01*
X453288Y250024D01*
X453243Y250136D01*
X453230Y250151D01*
X453222Y250171D01*
X453092Y250324D01*
X453049Y250376D01*
X443605Y258962D01*
X443590Y258972D01*
X443578Y258985D01*
X443502Y259032D01*
X443372Y259120D01*
X443340Y259130D01*
X443315Y259146D01*
X443274Y259163D01*
X442190Y260247D01*
X442170Y260262D01*
X442155Y260280D01*
X441021Y261311D01*
X441002Y261351D01*
X440992Y261366D01*
X440986Y261383D01*
X440933Y261456D01*
X440847Y261587D01*
X440822Y261608D01*
X440804Y261632D01*
X440773Y261664D01*
X440186Y263080D01*
X440180Y263090D01*
X440178Y263100D01*
X440170Y263112D01*
X440167Y263124D01*
X439513Y264511D01*
X439511Y264555D01*
X439508Y264573D01*
X439509Y264591D01*
X439488Y264678D01*
X439458Y264832D01*
X439443Y264862D01*
X439436Y264890D01*
X439419Y264932D01*
X439419Y266465D01*
X439416Y266490D01*
X439418Y266512D01*
X439345Y268044D01*
X439360Y268086D01*
X439364Y268103D01*
X439372Y268119D01*
X439386Y268208D01*
X439417Y268362D01*
X439415Y268395D01*
X439419Y268424D01*
X439419Y378958D01*
X440773Y382226D01*
X452337Y393790D01*
X452394Y393867D01*
X452459Y393938D01*
X452479Y393979D01*
X452506Y394016D01*
X452540Y394106D01*
X452582Y394192D01*
X452588Y394234D01*
X452605Y394279D01*
X452615Y394407D01*
X452629Y394497D01*
X452629Y409110D01*
X452620Y409174D01*
X452621Y409238D01*
X452600Y409313D01*
X452589Y409389D01*
X452563Y409448D01*
X452546Y409510D01*
X452505Y409576D01*
X452473Y409646D01*
X452431Y409695D01*
X452398Y409750D01*
X452340Y409802D01*
X452290Y409860D01*
X452236Y409896D01*
X452188Y409939D01*
X452119Y409972D01*
X452054Y410015D01*
X451992Y410034D01*
X451935Y410062D01*
X451865Y410073D01*
X451784Y410097D01*
X451699Y410098D01*
X451630Y410109D01*
X9890Y410109D01*
X9826Y410100D01*
X9762Y410101D01*
X9687Y410080D01*
X9611Y410069D01*
X9552Y410043D01*
X9490Y410026D01*
X9424Y409985D01*
X9354Y409953D01*
X9305Y409911D01*
X9250Y409878D01*
X9198Y409820D01*
X9140Y409770D01*
X9104Y409716D01*
X9061Y409668D01*
X9028Y409599D01*
X8985Y409534D01*
X8966Y409472D01*
X8938Y409415D01*
X8927Y409345D01*
X8903Y409264D01*
X8902Y409179D01*
X8891Y409110D01*
X8891Y240136D01*
X8895Y240104D01*
X8893Y240072D01*
X8915Y239965D01*
X8931Y239857D01*
X8944Y239827D01*
X8950Y239796D01*
X9002Y239699D01*
X9047Y239600D01*
X9068Y239575D01*
X9083Y239547D01*
X9159Y239468D01*
X9230Y239385D01*
X9257Y239368D01*
X9280Y239345D01*
X9375Y239291D01*
X9466Y239231D01*
X9497Y239221D01*
X9525Y239206D01*
X9631Y239180D01*
X9736Y239148D01*
X9768Y239148D01*
X9799Y239141D01*
X9909Y239146D01*
X10018Y239145D01*
X10049Y239153D01*
X10081Y239155D01*
X10184Y239191D01*
X10290Y239220D01*
X10317Y239237D01*
X10348Y239247D01*
X10421Y239301D01*
X10530Y239368D01*
X10562Y239404D01*
X10597Y239429D01*
X11330Y240163D01*
X14691Y241555D01*
X29290Y241555D01*
X29385Y241568D01*
X29481Y241573D01*
X29525Y241588D01*
X29570Y241595D01*
X29657Y241634D01*
X29748Y241666D01*
X29782Y241691D01*
X29826Y241711D01*
X29924Y241794D01*
X29997Y241847D01*
X102509Y314359D01*
X181458Y314359D01*
X186675Y309143D01*
X186675Y288001D01*
X186688Y287906D01*
X186693Y287809D01*
X186708Y287766D01*
X186715Y287721D01*
X186754Y287634D01*
X186786Y287543D01*
X186811Y287509D01*
X186831Y287464D01*
X186914Y287367D01*
X186967Y287294D01*
X213556Y260706D01*
X213633Y260648D01*
X213704Y260583D01*
X213745Y260564D01*
X213781Y260536D01*
X213871Y260502D01*
X213958Y260460D01*
X214000Y260454D01*
X214045Y260437D01*
X214173Y260427D01*
X214262Y260413D01*
X214556Y260413D01*
X225360Y249609D01*
X225411Y249570D01*
X225456Y249524D01*
X225523Y249486D01*
X225585Y249439D01*
X225646Y249417D01*
X225701Y249385D01*
X225777Y249367D01*
X225849Y249340D01*
X225913Y249335D01*
X225976Y249320D01*
X226053Y249324D01*
X226130Y249318D01*
X226193Y249331D01*
X226258Y249334D01*
X226331Y249360D01*
X226407Y249376D01*
X226463Y249406D01*
X226524Y249427D01*
X226581Y249468D01*
X226656Y249508D01*
X226716Y249567D01*
X226773Y249609D01*
X254009Y276845D01*
X293146Y276845D01*
X327112Y242879D01*
X327112Y227616D01*
X327113Y227606D01*
X327112Y227597D01*
X327133Y227467D01*
X327152Y227337D01*
X327155Y227328D01*
X327157Y227319D01*
X327214Y227199D01*
X327268Y227080D01*
X327274Y227073D01*
X327278Y227064D01*
X327366Y226965D01*
X327451Y226865D01*
X327459Y226860D01*
X327465Y226853D01*
X327525Y226817D01*
X329086Y225256D01*
X329894Y223306D01*
X329894Y221194D01*
X329086Y219244D01*
X327593Y217751D01*
X325643Y216943D01*
X323531Y216943D01*
X321581Y217751D01*
X320088Y219244D01*
X319280Y221194D01*
X319280Y223306D01*
X320088Y225256D01*
X321640Y226808D01*
X321688Y226836D01*
X321695Y226843D01*
X321703Y226848D01*
X321790Y226945D01*
X321881Y227042D01*
X321885Y227050D01*
X321892Y227057D01*
X321949Y227176D01*
X322009Y227293D01*
X322011Y227303D01*
X322015Y227311D01*
X322027Y227388D01*
X322061Y227571D01*
X322059Y227594D01*
X322062Y227616D01*
X322062Y240373D01*
X322049Y240468D01*
X322044Y240564D01*
X322029Y240608D01*
X322022Y240653D01*
X321983Y240740D01*
X321951Y240831D01*
X321926Y240865D01*
X321906Y240909D01*
X321823Y241007D01*
X321770Y241080D01*
X292652Y270197D01*
X292583Y270249D01*
X292519Y270309D01*
X292470Y270334D01*
X292427Y270367D01*
X292345Y270397D01*
X292268Y270437D01*
X292214Y270447D01*
X292163Y270466D01*
X292076Y270473D01*
X291991Y270489D01*
X291936Y270484D01*
X291882Y270488D01*
X291797Y270470D01*
X291710Y270462D01*
X291659Y270441D01*
X291605Y270430D01*
X291529Y270389D01*
X291448Y270357D01*
X291405Y270324D01*
X291357Y270298D01*
X291294Y270237D01*
X291226Y270184D01*
X291194Y270139D01*
X291154Y270101D01*
X291112Y270026D01*
X291061Y269955D01*
X291042Y269903D01*
X291015Y269856D01*
X290995Y269771D01*
X290966Y269689D01*
X290963Y269635D01*
X290950Y269581D01*
X290955Y269494D01*
X290950Y269408D01*
X290962Y269358D01*
X290965Y269300D01*
X291002Y269192D01*
X291022Y269108D01*
X291057Y269026D01*
X291057Y266914D01*
X290249Y264964D01*
X288756Y263471D01*
X286806Y262663D01*
X284694Y262663D01*
X282744Y263471D01*
X281192Y265023D01*
X281164Y265071D01*
X281157Y265078D01*
X281152Y265086D01*
X281054Y265174D01*
X280958Y265264D01*
X280950Y265268D01*
X280943Y265275D01*
X280824Y265332D01*
X280707Y265392D01*
X280697Y265394D01*
X280689Y265398D01*
X280612Y265410D01*
X280429Y265444D01*
X280406Y265442D01*
X280384Y265445D01*
X255939Y265445D01*
X255844Y265432D01*
X255748Y265427D01*
X255705Y265412D01*
X255660Y265405D01*
X255572Y265366D01*
X255481Y265334D01*
X255447Y265309D01*
X255403Y265289D01*
X255305Y265206D01*
X255232Y265153D01*
X248625Y258545D01*
X248587Y258494D01*
X248540Y258449D01*
X248502Y258382D01*
X248456Y258320D01*
X248433Y258260D01*
X248401Y258204D01*
X248384Y258128D01*
X248356Y258056D01*
X248351Y257992D01*
X248336Y257929D01*
X248340Y257852D01*
X248334Y257775D01*
X248348Y257712D01*
X248351Y257648D01*
X248376Y257574D01*
X248392Y257499D01*
X248422Y257442D01*
X248443Y257381D01*
X248485Y257325D01*
X248524Y257250D01*
X248584Y257189D01*
X248625Y257132D01*
X248962Y256795D01*
X241951Y249784D01*
X241950Y249784D01*
X234939Y242772D01*
X234349Y243363D01*
X234014Y243942D01*
X233841Y244588D01*
X233841Y244893D01*
X233827Y244988D01*
X233823Y245084D01*
X233808Y245128D01*
X233801Y245173D01*
X233762Y245260D01*
X233730Y245351D01*
X233705Y245385D01*
X233685Y245429D01*
X233602Y245527D01*
X233548Y245600D01*
X232433Y246715D01*
X232382Y246753D01*
X232337Y246799D01*
X232270Y246838D01*
X232208Y246884D01*
X232148Y246907D01*
X232092Y246938D01*
X232016Y246956D01*
X231944Y246984D01*
X231880Y246989D01*
X231817Y247003D01*
X231740Y246999D01*
X231663Y247005D01*
X231600Y246992D01*
X231536Y246989D01*
X231462Y246964D01*
X231387Y246948D01*
X231330Y246918D01*
X231269Y246897D01*
X231213Y246855D01*
X231138Y246815D01*
X231077Y246756D01*
X231020Y246715D01*
X207916Y223611D01*
X204735Y223611D01*
X204640Y223597D01*
X204544Y223592D01*
X204501Y223577D01*
X204456Y223571D01*
X204377Y223535D01*
X202001Y223535D01*
X201906Y223522D01*
X201810Y223517D01*
X201767Y223502D01*
X201722Y223495D01*
X201634Y223456D01*
X201543Y223424D01*
X201509Y223399D01*
X201465Y223379D01*
X201367Y223296D01*
X201294Y223243D01*
X187280Y209229D01*
X187184Y209132D01*
X187165Y209107D01*
X187140Y209086D01*
X187080Y208994D01*
X187015Y208907D01*
X187004Y208877D01*
X186986Y208850D01*
X186954Y208745D01*
X186915Y208643D01*
X186913Y208611D01*
X186903Y208580D01*
X186902Y208471D01*
X186893Y208362D01*
X186900Y208330D01*
X186900Y208298D01*
X186929Y208193D01*
X186951Y208086D01*
X186966Y208057D01*
X186975Y208026D01*
X187032Y207933D01*
X187083Y207837D01*
X187106Y207814D01*
X187123Y207786D01*
X187204Y207713D01*
X187280Y207635D01*
X187308Y207619D01*
X187332Y207597D01*
X187431Y207550D01*
X187526Y207496D01*
X187557Y207488D01*
X187586Y207474D01*
X187675Y207460D01*
X187800Y207431D01*
X187849Y207433D01*
X187891Y207427D01*
X201101Y207427D01*
X201196Y207440D01*
X201292Y207445D01*
X201335Y207460D01*
X201380Y207466D01*
X201467Y207506D01*
X201558Y207537D01*
X201593Y207563D01*
X201637Y207583D01*
X201734Y207666D01*
X201807Y207719D01*
X228606Y234518D01*
X231185Y234518D01*
X231280Y234532D01*
X231376Y234537D01*
X231419Y234552D01*
X231464Y234558D01*
X231552Y234598D01*
X231643Y234629D01*
X231677Y234654D01*
X231721Y234674D01*
X231819Y234758D01*
X231892Y234811D01*
X236689Y239609D01*
X236728Y239660D01*
X236774Y239705D01*
X236812Y239772D01*
X236859Y239834D01*
X236881Y239894D01*
X236913Y239950D01*
X236931Y240026D01*
X236958Y240098D01*
X236963Y240162D01*
X236978Y240225D01*
X236974Y240302D01*
X236980Y240379D01*
X236967Y240442D01*
X236964Y240506D01*
X236938Y240580D01*
X236922Y240655D01*
X236892Y240712D01*
X236871Y240773D01*
X236830Y240830D01*
X236790Y240904D01*
X236731Y240965D01*
X236689Y241022D01*
X236352Y241359D01*
X243364Y248370D01*
X243364Y248371D01*
X250375Y255382D01*
X250966Y254791D01*
X251300Y254212D01*
X251474Y253566D01*
X251474Y253261D01*
X251487Y253166D01*
X251492Y253070D01*
X251507Y253027D01*
X251513Y252982D01*
X251553Y252894D01*
X251585Y252803D01*
X251610Y252769D01*
X251630Y252725D01*
X251713Y252627D01*
X251766Y252554D01*
X279034Y225286D01*
X281814Y222507D01*
X281865Y222468D01*
X281910Y222422D01*
X281977Y222384D01*
X282039Y222337D01*
X282100Y222315D01*
X282155Y222283D01*
X282231Y222265D01*
X282303Y222238D01*
X282367Y222233D01*
X282430Y222218D01*
X282507Y222222D01*
X282584Y222216D01*
X282647Y222229D01*
X282712Y222232D01*
X282785Y222258D01*
X282861Y222274D01*
X282917Y222304D01*
X282978Y222325D01*
X283035Y222366D01*
X283110Y222406D01*
X283170Y222465D01*
X283227Y222507D01*
X284479Y223759D01*
X297972Y223759D01*
X325847Y195884D01*
X325924Y195826D01*
X325995Y195762D01*
X326036Y195742D01*
X326072Y195714D01*
X326162Y195680D01*
X326249Y195639D01*
X326291Y195632D01*
X326336Y195615D01*
X326464Y195605D01*
X326553Y195591D01*
X390506Y195591D01*
X390515Y195592D01*
X390525Y195591D01*
X390655Y195612D01*
X390785Y195631D01*
X390794Y195635D01*
X390803Y195636D01*
X390923Y195693D01*
X391042Y195747D01*
X391049Y195753D01*
X391058Y195757D01*
X391157Y195845D01*
X391256Y195930D01*
X391261Y195938D01*
X391268Y195945D01*
X391309Y196011D01*
X391411Y196166D01*
X391418Y196189D01*
X391429Y196208D01*
X392273Y198246D01*
X394846Y200819D01*
X398207Y202211D01*
X417085Y202211D01*
X420446Y200819D01*
X423018Y198246D01*
X424411Y194885D01*
X424411Y191247D01*
X423018Y187886D01*
X420446Y185314D01*
X418286Y184419D01*
X418211Y184375D01*
X418132Y184339D01*
X418090Y184303D01*
X418043Y184275D01*
X417984Y184212D01*
X417918Y184156D01*
X417887Y184110D01*
X417850Y184070D01*
X417811Y183992D01*
X417763Y183920D01*
X417747Y183867D01*
X417722Y183818D01*
X417706Y183733D01*
X417681Y183650D01*
X417680Y183595D01*
X417670Y183541D01*
X417678Y183455D01*
X417677Y183368D01*
X417692Y183315D01*
X417697Y183260D01*
X417729Y183180D01*
X417752Y183096D01*
X417781Y183049D01*
X417801Y182998D01*
X417855Y182930D01*
X417900Y182856D01*
X417941Y182819D01*
X417975Y182776D01*
X418045Y182725D01*
X418110Y182667D01*
X418159Y182643D01*
X418204Y182611D01*
X418285Y182582D01*
X418363Y182544D01*
X418414Y182536D01*
X418469Y182517D01*
X418583Y182510D01*
X418668Y182497D01*
X422895Y182497D01*
X422990Y182510D01*
X423087Y182515D01*
X423130Y182530D01*
X423175Y182536D01*
X423262Y182576D01*
X423353Y182607D01*
X423387Y182633D01*
X423432Y182653D01*
X423529Y182736D01*
X423602Y182789D01*
X428743Y187930D01*
X428800Y188007D01*
X428865Y188078D01*
X428885Y188119D01*
X428912Y188155D01*
X428946Y188245D01*
X428988Y188332D01*
X428994Y188374D01*
X429011Y188419D01*
X429021Y188547D01*
X429035Y188636D01*
X429035Y212140D01*
X429022Y212235D01*
X429017Y212331D01*
X429002Y212374D01*
X428996Y212419D01*
X428956Y212507D01*
X428924Y212598D01*
X428899Y212632D01*
X428879Y212676D01*
X428796Y212774D01*
X428743Y212847D01*
X425941Y215649D01*
X425864Y215707D01*
X425792Y215771D01*
X425751Y215791D01*
X425715Y215818D01*
X425625Y215852D01*
X425539Y215894D01*
X425497Y215901D01*
X425451Y215918D01*
X425323Y215928D01*
X425234Y215942D01*
X424786Y215942D01*
X424776Y215940D01*
X424767Y215941D01*
X424637Y215920D01*
X424507Y215902D01*
X424498Y215898D01*
X424489Y215896D01*
X424369Y215839D01*
X424250Y215786D01*
X424243Y215779D01*
X424234Y215775D01*
X424135Y215687D01*
X424035Y215602D01*
X424030Y215594D01*
X424023Y215588D01*
X423983Y215522D01*
X423881Y215366D01*
X423874Y215343D01*
X423863Y215325D01*
X423018Y213286D01*
X420446Y210714D01*
X417085Y209322D01*
X398207Y209322D01*
X394846Y210714D01*
X392273Y213286D01*
X390881Y216647D01*
X390881Y220285D01*
X392273Y223646D01*
X394846Y226219D01*
X398207Y227611D01*
X417085Y227611D01*
X420446Y226219D01*
X423018Y223646D01*
X423863Y221608D01*
X423868Y221600D01*
X423870Y221591D01*
X423940Y221478D01*
X424006Y221365D01*
X424013Y221359D01*
X424018Y221351D01*
X424116Y221262D01*
X424212Y221172D01*
X424220Y221168D01*
X424228Y221162D01*
X424346Y221104D01*
X424463Y221044D01*
X424473Y221043D01*
X424481Y221039D01*
X424557Y221027D01*
X424741Y220992D01*
X424765Y220994D01*
X424786Y220991D01*
X427740Y220991D01*
X434085Y214646D01*
X434085Y186131D01*
X425401Y177447D01*
X422166Y177447D01*
X422056Y177431D01*
X421946Y177423D01*
X421917Y177412D01*
X421886Y177407D01*
X421786Y177362D01*
X421683Y177323D01*
X421658Y177304D01*
X421629Y177291D01*
X421545Y177219D01*
X421457Y177153D01*
X421439Y177128D01*
X421415Y177108D01*
X421354Y177015D01*
X421289Y176927D01*
X421278Y176898D01*
X421261Y176872D01*
X421228Y176766D01*
X421190Y176663D01*
X421187Y176632D01*
X421178Y176602D01*
X421177Y176492D01*
X421169Y176382D01*
X421175Y176351D01*
X421175Y176320D01*
X421204Y176214D01*
X421227Y176106D01*
X421241Y176078D01*
X421250Y176048D01*
X421308Y175954D01*
X421360Y175857D01*
X421381Y175836D01*
X421398Y175808D01*
X421515Y175703D01*
X421578Y175639D01*
X421885Y175416D01*
X423016Y174286D01*
X423956Y172992D01*
X424682Y171567D01*
X425176Y170046D01*
X425237Y169666D01*
X408646Y169666D01*
X408582Y169656D01*
X408518Y169657D01*
X408443Y169637D01*
X408367Y169626D01*
X408308Y169599D01*
X408246Y169582D01*
X408180Y169541D01*
X408110Y169509D01*
X408061Y169468D01*
X408006Y169434D01*
X407954Y169376D01*
X407896Y169326D01*
X407860Y169272D01*
X407817Y169225D01*
X407784Y169155D01*
X407741Y169090D01*
X407722Y169029D01*
X407694Y168971D01*
X407683Y168901D01*
X407659Y168820D01*
X407658Y168736D01*
X407647Y168666D01*
X407647Y166666D01*
X407656Y166603D01*
X407655Y166538D01*
X407676Y166464D01*
X407687Y166387D01*
X407713Y166329D01*
X407730Y166267D01*
X407771Y166201D01*
X407803Y166130D01*
X407844Y166081D01*
X407878Y166027D01*
X407936Y165975D01*
X407986Y165916D01*
X408040Y165881D01*
X408088Y165838D01*
X408157Y165804D01*
X408222Y165761D01*
X408284Y165743D01*
X408341Y165715D01*
X408411Y165704D01*
X408492Y165679D01*
X408577Y165678D01*
X408646Y165667D01*
X425237Y165667D01*
X425176Y165287D01*
X424682Y163766D01*
X423956Y162341D01*
X423016Y161047D01*
X422452Y160483D01*
X422433Y160458D01*
X422409Y160437D01*
X422408Y160436D01*
X422348Y160345D01*
X422283Y160257D01*
X422271Y160227D01*
X422253Y160200D01*
X422222Y160096D01*
X422183Y159993D01*
X422180Y159961D01*
X422171Y159930D01*
X422170Y159821D01*
X422161Y159712D01*
X422168Y159681D01*
X422167Y159648D01*
X422196Y159543D01*
X422219Y159436D01*
X422234Y159408D01*
X422243Y159377D01*
X422300Y159284D01*
X422351Y159187D01*
X422374Y159164D01*
X422391Y159137D01*
X422472Y159063D01*
X422548Y158985D01*
X422576Y158969D01*
X422600Y158948D01*
X422698Y158900D01*
X422793Y158846D01*
X422825Y158839D01*
X422854Y158825D01*
X422943Y158811D01*
X423068Y158781D01*
X423116Y158784D01*
X423158Y158777D01*
X427724Y158777D01*
X438135Y148366D01*
X438135Y123414D01*
X374701Y59980D01*
X349603Y59980D01*
X349571Y59976D01*
X349539Y59978D01*
X349432Y59956D01*
X349323Y59940D01*
X349294Y59927D01*
X349262Y59921D01*
X349166Y59869D01*
X349066Y59824D01*
X349042Y59803D01*
X349014Y59788D01*
X348935Y59712D01*
X348852Y59641D01*
X348835Y59614D01*
X348811Y59591D01*
X348758Y59496D01*
X348698Y59405D01*
X348688Y59374D01*
X348672Y59346D01*
X348647Y59240D01*
X348615Y59135D01*
X348615Y59103D01*
X348607Y59072D01*
X348613Y58962D01*
X348612Y58853D01*
X348620Y58822D01*
X348622Y58790D01*
X348658Y58687D01*
X348687Y58581D01*
X348704Y58554D01*
X348714Y58523D01*
X348768Y58450D01*
X348835Y58341D01*
X348871Y58309D01*
X348896Y58274D01*
X351516Y55655D01*
X353518Y50822D01*
X353518Y45590D01*
X351516Y40757D01*
X347817Y37058D01*
X342984Y35056D01*
X337752Y35056D01*
X332919Y37058D01*
X329220Y40757D01*
X327448Y45035D01*
X327432Y45063D01*
X327422Y45094D01*
X327360Y45184D01*
X327305Y45278D01*
X327281Y45300D01*
X327263Y45327D01*
X327179Y45396D01*
X327099Y45471D01*
X327070Y45486D01*
X327045Y45506D01*
X326945Y45549D01*
X326847Y45599D01*
X326816Y45605D01*
X326786Y45617D01*
X326678Y45631D01*
X326570Y45651D01*
X326538Y45648D01*
X326506Y45652D01*
X326398Y45635D01*
X326290Y45624D01*
X326260Y45612D01*
X326228Y45607D01*
X326129Y45560D01*
X326028Y45520D01*
X326002Y45500D01*
X325973Y45486D01*
X325891Y45413D01*
X325805Y45346D01*
X325786Y45320D01*
X325762Y45299D01*
X325715Y45221D01*
X325640Y45117D01*
X325624Y45072D01*
X325602Y45035D01*
X323830Y40757D01*
X320131Y37058D01*
X315298Y35056D01*
X310066Y35056D01*
X305233Y37058D01*
X301534Y40757D01*
X300293Y43753D01*
X300257Y43814D01*
X300230Y43880D01*
X300186Y43935D01*
X300150Y43996D01*
X300098Y44044D01*
X300053Y44100D01*
X299995Y44140D01*
X299944Y44188D01*
X299880Y44221D01*
X299822Y44262D01*
X299755Y44284D01*
X299693Y44316D01*
X299622Y44330D01*
X299555Y44352D01*
X299485Y44356D01*
X299416Y44369D01*
X299345Y44362D01*
X299273Y44365D01*
X299205Y44348D01*
X299135Y44342D01*
X299069Y44315D01*
X298999Y44298D01*
X298938Y44263D01*
X298873Y44237D01*
X298817Y44193D01*
X298755Y44158D01*
X298706Y44107D01*
X298651Y44064D01*
X298609Y44006D01*
X298559Y43954D01*
X298530Y43897D01*
X298485Y43835D01*
X298454Y43747D01*
X298420Y43679D01*
X298124Y42768D01*
X297112Y40781D01*
X295801Y38978D01*
X294224Y37401D01*
X292421Y36090D01*
X290434Y35078D01*
X288313Y34389D01*
X286995Y34180D01*
X286995Y47206D01*
X286986Y47269D01*
X286987Y47334D01*
X286966Y47408D01*
X286955Y47485D01*
X286929Y47544D01*
X286912Y47606D01*
X286871Y47672D01*
X286839Y47742D01*
X286797Y47791D01*
X286764Y47846D01*
X286706Y47897D01*
X286656Y47956D01*
X286602Y47992D01*
X286554Y48035D01*
X286485Y48068D01*
X286420Y48111D01*
X286358Y48130D01*
X286301Y48158D01*
X286231Y48168D01*
X286150Y48193D01*
X286065Y48194D01*
X285996Y48205D01*
X283996Y48205D01*
X283932Y48196D01*
X283868Y48197D01*
X283793Y48176D01*
X283717Y48165D01*
X283658Y48139D01*
X283596Y48122D01*
X283530Y48081D01*
X283460Y48049D01*
X283411Y48007D01*
X283356Y47974D01*
X283304Y47916D01*
X283246Y47866D01*
X283210Y47812D01*
X283167Y47764D01*
X283134Y47695D01*
X283091Y47630D01*
X283072Y47568D01*
X283044Y47510D01*
X283033Y47441D01*
X283009Y47360D01*
X283008Y47275D01*
X282997Y47206D01*
X282997Y34180D01*
X281679Y34389D01*
X279558Y35078D01*
X277571Y36090D01*
X275768Y37401D01*
X274191Y38978D01*
X272880Y40781D01*
X271868Y42768D01*
X271684Y43336D01*
X271652Y43400D01*
X271630Y43468D01*
X271591Y43526D01*
X271560Y43589D01*
X271511Y43642D01*
X271471Y43701D01*
X271417Y43745D01*
X271370Y43797D01*
X271309Y43835D01*
X271254Y43880D01*
X271189Y43908D01*
X271129Y43944D01*
X271060Y43963D01*
X270995Y43991D01*
X270925Y44000D01*
X270857Y44018D01*
X270785Y44017D01*
X270715Y44026D01*
X270645Y44015D01*
X270575Y44013D01*
X270507Y43992D01*
X270436Y43981D01*
X270373Y43951D01*
X270306Y43930D01*
X270246Y43890D01*
X270181Y43860D01*
X270129Y43813D01*
X270070Y43774D01*
X270024Y43720D01*
X269971Y43672D01*
X269937Y43617D01*
X269888Y43559D01*
X269850Y43474D01*
X269810Y43409D01*
X268712Y40757D01*
X265013Y37058D01*
X260180Y35056D01*
X254948Y35056D01*
X250115Y37058D01*
X246416Y40757D01*
X245175Y43753D01*
X245139Y43814D01*
X245112Y43880D01*
X245068Y43935D01*
X245032Y43996D01*
X244980Y44044D01*
X244935Y44100D01*
X244877Y44140D01*
X244826Y44188D01*
X244762Y44221D01*
X244704Y44262D01*
X244637Y44284D01*
X244575Y44316D01*
X244504Y44330D01*
X244437Y44352D01*
X244367Y44356D01*
X244298Y44369D01*
X244227Y44362D01*
X244155Y44365D01*
X244087Y44348D01*
X244017Y44342D01*
X243951Y44315D01*
X243881Y44298D01*
X243820Y44263D01*
X243755Y44237D01*
X243699Y44193D01*
X243637Y44158D01*
X243588Y44107D01*
X243533Y44064D01*
X243491Y44006D01*
X243441Y43954D01*
X243412Y43897D01*
X243367Y43835D01*
X243336Y43747D01*
X243302Y43679D01*
X243006Y42768D01*
X241994Y40781D01*
X240683Y38978D01*
X239106Y37401D01*
X237303Y36090D01*
X235316Y35078D01*
X233195Y34389D01*
X231877Y34180D01*
X231877Y47206D01*
X231868Y47269D01*
X231869Y47334D01*
X231848Y47408D01*
X231837Y47485D01*
X231811Y47544D01*
X231794Y47606D01*
X231753Y47672D01*
X231721Y47742D01*
X231679Y47791D01*
X231646Y47846D01*
X231588Y47897D01*
X231538Y47956D01*
X231484Y47992D01*
X231436Y48035D01*
X231367Y48068D01*
X231302Y48111D01*
X231240Y48130D01*
X231183Y48158D01*
X231113Y48168D01*
X231032Y48193D01*
X230947Y48194D01*
X230878Y48205D01*
X228878Y48205D01*
X228814Y48196D01*
X228750Y48197D01*
X228675Y48176D01*
X228599Y48165D01*
X228540Y48139D01*
X228478Y48122D01*
X228412Y48081D01*
X228342Y48049D01*
X228293Y48007D01*
X228238Y47974D01*
X228186Y47916D01*
X228128Y47866D01*
X228092Y47812D01*
X228049Y47764D01*
X228016Y47695D01*
X227973Y47630D01*
X227954Y47568D01*
X227926Y47510D01*
X227915Y47441D01*
X227891Y47360D01*
X227890Y47275D01*
X227879Y47206D01*
X227879Y34180D01*
X226561Y34389D01*
X224440Y35078D01*
X222453Y36090D01*
X220650Y37401D01*
X219073Y38978D01*
X217762Y40781D01*
X216750Y42768D01*
X216454Y43679D01*
X216423Y43743D01*
X216401Y43811D01*
X216361Y43869D01*
X216330Y43932D01*
X216282Y43985D01*
X216242Y44044D01*
X216187Y44089D01*
X216140Y44141D01*
X216079Y44178D01*
X216024Y44224D01*
X215959Y44251D01*
X215899Y44288D01*
X215830Y44307D01*
X215765Y44335D01*
X215695Y44344D01*
X215627Y44362D01*
X215556Y44361D01*
X215485Y44369D01*
X215416Y44358D01*
X215345Y44357D01*
X215277Y44336D01*
X215207Y44324D01*
X215143Y44294D01*
X215076Y44273D01*
X215016Y44234D01*
X214952Y44203D01*
X214899Y44157D01*
X214841Y44118D01*
X214794Y44063D01*
X214741Y44016D01*
X214708Y43961D01*
X214658Y43903D01*
X214620Y43817D01*
X214581Y43753D01*
X213340Y40757D01*
X209641Y37058D01*
X204808Y35056D01*
X199576Y35056D01*
X194743Y37058D01*
X191044Y40757D01*
X189946Y43409D01*
X189909Y43471D01*
X189882Y43537D01*
X189838Y43591D01*
X189802Y43652D01*
X189750Y43701D01*
X189705Y43756D01*
X189648Y43797D01*
X189596Y43845D01*
X189533Y43877D01*
X189474Y43918D01*
X189408Y43941D01*
X189345Y43973D01*
X189275Y43986D01*
X189207Y44009D01*
X189137Y44012D01*
X189068Y44025D01*
X188997Y44018D01*
X188925Y44021D01*
X188857Y44005D01*
X188787Y43998D01*
X188721Y43971D01*
X188651Y43955D01*
X188590Y43919D01*
X188525Y43893D01*
X188469Y43850D01*
X188407Y43814D01*
X188358Y43763D01*
X188303Y43720D01*
X188261Y43662D01*
X188212Y43611D01*
X188183Y43553D01*
X188138Y43491D01*
X188106Y43403D01*
X188072Y43336D01*
X187888Y42768D01*
X186876Y40781D01*
X185565Y38978D01*
X183988Y37401D01*
X182185Y36090D01*
X180198Y35078D01*
X178077Y34389D01*
X176759Y34180D01*
X176759Y47206D01*
X176750Y47269D01*
X176751Y47334D01*
X176730Y47408D01*
X176719Y47485D01*
X176693Y47544D01*
X176676Y47606D01*
X176635Y47672D01*
X176603Y47742D01*
X176561Y47791D01*
X176528Y47846D01*
X176470Y47897D01*
X176420Y47956D01*
X176366Y47992D01*
X176318Y48035D01*
X176249Y48068D01*
X176184Y48111D01*
X176122Y48130D01*
X176065Y48158D01*
X175995Y48168D01*
X175914Y48193D01*
X175829Y48194D01*
X175760Y48205D01*
X173760Y48205D01*
X173696Y48196D01*
X173632Y48197D01*
X173557Y48176D01*
X173481Y48165D01*
X173422Y48139D01*
X173360Y48122D01*
X173294Y48081D01*
X173224Y48049D01*
X173175Y48007D01*
X173120Y47974D01*
X173068Y47916D01*
X173010Y47866D01*
X172974Y47812D01*
X172931Y47764D01*
X172898Y47695D01*
X172855Y47630D01*
X172836Y47568D01*
X172808Y47510D01*
X172797Y47441D01*
X172773Y47360D01*
X172772Y47275D01*
X172761Y47206D01*
X172761Y34180D01*
X171443Y34389D01*
X169322Y35078D01*
X167335Y36090D01*
X165532Y37401D01*
X163955Y38978D01*
X162644Y40781D01*
X161632Y42768D01*
X161336Y43679D01*
X161305Y43743D01*
X161283Y43811D01*
X161243Y43869D01*
X161212Y43932D01*
X161164Y43985D01*
X161124Y44044D01*
X161069Y44089D01*
X161022Y44141D01*
X160961Y44178D01*
X160906Y44224D01*
X160841Y44251D01*
X160781Y44288D01*
X160712Y44307D01*
X160647Y44335D01*
X160577Y44344D01*
X160509Y44362D01*
X160438Y44361D01*
X160367Y44369D01*
X160298Y44358D01*
X160227Y44357D01*
X160159Y44336D01*
X160089Y44324D01*
X160025Y44294D01*
X159958Y44273D01*
X159898Y44234D01*
X159834Y44203D01*
X159781Y44157D01*
X159723Y44118D01*
X159676Y44063D01*
X159623Y44016D01*
X159590Y43961D01*
X159540Y43903D01*
X159502Y43817D01*
X159463Y43753D01*
X158222Y40757D01*
X154523Y37058D01*
X149690Y35056D01*
X144458Y35056D01*
X139625Y37058D01*
X135926Y40757D01*
X134685Y43753D01*
X134649Y43814D01*
X134622Y43880D01*
X134578Y43935D01*
X134542Y43996D01*
X134490Y44044D01*
X134445Y44100D01*
X134387Y44140D01*
X134336Y44188D01*
X134272Y44221D01*
X134214Y44262D01*
X134147Y44284D01*
X134085Y44316D01*
X134014Y44330D01*
X133947Y44352D01*
X133877Y44356D01*
X133808Y44369D01*
X133737Y44362D01*
X133665Y44365D01*
X133597Y44348D01*
X133527Y44342D01*
X133461Y44315D01*
X133391Y44298D01*
X133330Y44263D01*
X133265Y44237D01*
X133209Y44193D01*
X133147Y44158D01*
X133098Y44107D01*
X133043Y44064D01*
X133001Y44006D01*
X132951Y43954D01*
X132922Y43897D01*
X132877Y43835D01*
X132846Y43747D01*
X132812Y43679D01*
X132516Y42768D01*
X131504Y40781D01*
X130193Y38978D01*
X128616Y37401D01*
X126813Y36090D01*
X124826Y35078D01*
X122705Y34389D01*
X121387Y34180D01*
X121387Y47206D01*
X121378Y47269D01*
X121379Y47334D01*
X121358Y47408D01*
X121347Y47485D01*
X121321Y47544D01*
X121304Y47606D01*
X121263Y47672D01*
X121231Y47742D01*
X121189Y47791D01*
X121156Y47846D01*
X121098Y47897D01*
X121048Y47956D01*
X120994Y47992D01*
X120946Y48035D01*
X120877Y48068D01*
X120812Y48111D01*
X120750Y48130D01*
X120693Y48158D01*
X120623Y48168D01*
X120542Y48193D01*
X120457Y48194D01*
X120388Y48205D01*
X119387Y48205D01*
X119387Y49206D01*
X119378Y49270D01*
X119379Y49334D01*
X119358Y49409D01*
X119347Y49485D01*
X119321Y49544D01*
X119304Y49606D01*
X119263Y49672D01*
X119231Y49742D01*
X119189Y49791D01*
X119156Y49846D01*
X119098Y49898D01*
X119048Y49956D01*
X118994Y49992D01*
X118946Y50035D01*
X118877Y50068D01*
X118812Y50111D01*
X118750Y50130D01*
X118692Y50158D01*
X118623Y50168D01*
X118542Y50193D01*
X118457Y50194D01*
X118388Y50205D01*
X105362Y50205D01*
X105441Y50705D01*
X105442Y50705D01*
X105571Y51523D01*
X106260Y53644D01*
X107272Y55631D01*
X108583Y57434D01*
X109523Y58374D01*
X109542Y58400D01*
X109567Y58421D01*
X109627Y58512D01*
X109692Y58600D01*
X109704Y58630D01*
X109721Y58657D01*
X109753Y58762D01*
X109792Y58864D01*
X109794Y58896D01*
X109804Y58927D01*
X109805Y59036D01*
X109814Y59145D01*
X109807Y59177D01*
X109808Y59209D01*
X109778Y59314D01*
X109756Y59421D01*
X109741Y59450D01*
X109732Y59481D01*
X109675Y59574D01*
X109624Y59670D01*
X109601Y59693D01*
X109584Y59721D01*
X109503Y59794D01*
X109427Y59872D01*
X109399Y59888D01*
X109375Y59910D01*
X109277Y59957D01*
X109182Y60011D01*
X109150Y60019D01*
X109121Y60033D01*
X109032Y60047D01*
X108907Y60076D01*
X108859Y60074D01*
X108817Y60080D01*
X98807Y60080D01*
X89098Y69789D01*
X89098Y83519D01*
X102968Y97389D01*
X141902Y97389D01*
X141997Y97402D01*
X142093Y97407D01*
X142136Y97422D01*
X142181Y97429D01*
X142269Y97468D01*
X142360Y97500D01*
X142394Y97525D01*
X142438Y97545D01*
X142536Y97628D01*
X142609Y97681D01*
X151239Y106311D01*
X151296Y106388D01*
X151361Y106460D01*
X151381Y106501D01*
X151408Y106537D01*
X151442Y106627D01*
X151484Y106713D01*
X151490Y106755D01*
X151507Y106801D01*
X151517Y106928D01*
X151531Y107018D01*
X151531Y126270D01*
X151522Y126334D01*
X151523Y126398D01*
X151502Y126473D01*
X151491Y126549D01*
X151465Y126608D01*
X151448Y126670D01*
X151407Y126736D01*
X151375Y126806D01*
X151333Y126855D01*
X151300Y126910D01*
X151242Y126962D01*
X151192Y127020D01*
X151138Y127056D01*
X151090Y127099D01*
X151021Y127132D01*
X150956Y127175D01*
X150894Y127194D01*
X150837Y127222D01*
X150767Y127233D01*
X150686Y127257D01*
X150601Y127258D01*
X150532Y127269D01*
X99915Y127269D01*
X99329Y127855D01*
X99329Y197077D01*
X99320Y197141D01*
X99321Y197205D01*
X99300Y197280D01*
X99289Y197356D01*
X99263Y197415D01*
X99246Y197477D01*
X99205Y197543D01*
X99173Y197613D01*
X99131Y197662D01*
X99098Y197717D01*
X99040Y197769D01*
X98990Y197827D01*
X98936Y197863D01*
X98888Y197906D01*
X98819Y197939D01*
X98754Y197982D01*
X98692Y198001D01*
X98635Y198029D01*
X98565Y198040D01*
X98484Y198064D01*
X98399Y198065D01*
X98330Y198076D01*
X96911Y198076D01*
X96911Y207117D01*
X96902Y207180D01*
X96903Y207245D01*
X96882Y207319D01*
X96871Y207396D01*
X96845Y207455D01*
X96827Y207517D01*
X96787Y207583D01*
X96755Y207653D01*
X96713Y207702D01*
X96679Y207757D01*
X96622Y207808D01*
X96571Y207867D01*
X96518Y207903D01*
X96470Y207946D01*
X96400Y207979D01*
X96335Y208022D01*
X96274Y208041D01*
X96216Y208069D01*
X96147Y208079D01*
X96066Y208104D01*
X95981Y208105D01*
X95912Y208116D01*
X93912Y208116D01*
X93848Y208107D01*
X93784Y208108D01*
X93709Y208087D01*
X93632Y208076D01*
X93574Y208050D01*
X93512Y208033D01*
X93446Y207992D01*
X93375Y207960D01*
X93327Y207918D01*
X93272Y207885D01*
X93220Y207827D01*
X93161Y207777D01*
X93126Y207723D01*
X93083Y207675D01*
X93049Y207606D01*
X93007Y207541D01*
X92988Y207479D01*
X92960Y207421D01*
X92949Y207352D01*
X92924Y207271D01*
X92923Y207186D01*
X92912Y207117D01*
X92912Y198076D01*
X88077Y198076D01*
X87431Y198249D01*
X86851Y198584D01*
X86379Y199057D01*
X86044Y199636D01*
X85901Y200171D01*
X85897Y200181D01*
X85895Y200192D01*
X85841Y200310D01*
X85790Y200430D01*
X85783Y200439D01*
X85779Y200448D01*
X85694Y200547D01*
X85611Y200648D01*
X85602Y200655D01*
X85595Y200663D01*
X85486Y200734D01*
X85379Y200808D01*
X85368Y200811D01*
X85359Y200817D01*
X85235Y200855D01*
X85111Y200896D01*
X85100Y200896D01*
X85090Y200900D01*
X84959Y200901D01*
X84829Y200906D01*
X84819Y200903D01*
X84808Y200903D01*
X84682Y200868D01*
X84556Y200836D01*
X84546Y200831D01*
X84536Y200828D01*
X84425Y200760D01*
X84313Y200694D01*
X84305Y200686D01*
X84296Y200680D01*
X84208Y200583D01*
X84119Y200488D01*
X84114Y200479D01*
X84107Y200471D01*
X84050Y200354D01*
X83991Y200237D01*
X83989Y200227D01*
X83984Y200217D01*
X83972Y200138D01*
X83944Y199993D01*
X83388Y199437D01*
X83374Y199419D01*
X83362Y199408D01*
X83343Y199380D01*
X83303Y199341D01*
X83265Y199274D01*
X83219Y199212D01*
X83196Y199152D01*
X83164Y199096D01*
X83147Y199020D01*
X83119Y198948D01*
X83114Y198884D01*
X83100Y198821D01*
X83103Y198744D01*
X83097Y198667D01*
X83111Y198604D01*
X83114Y198539D01*
X83139Y198466D01*
X83155Y198390D01*
X83185Y198334D01*
X83206Y198273D01*
X83248Y198216D01*
X83288Y198141D01*
X83347Y198081D01*
X83388Y198024D01*
X87326Y194086D01*
X87326Y162784D01*
X82528Y157986D01*
X82471Y157909D01*
X82406Y157838D01*
X82386Y157797D01*
X82359Y157760D01*
X82325Y157670D01*
X82283Y157584D01*
X82277Y157542D01*
X82259Y157497D01*
X82249Y157369D01*
X82236Y157279D01*
X82236Y142450D01*
X81342Y141557D01*
X67379Y141557D01*
X66486Y142450D01*
X66486Y162510D01*
X67379Y163403D01*
X80390Y163403D01*
X80485Y163416D01*
X80581Y163421D01*
X80624Y163436D01*
X80669Y163443D01*
X80757Y163482D01*
X80848Y163514D01*
X80882Y163539D01*
X80926Y163559D01*
X81023Y163642D01*
X81097Y163696D01*
X81984Y164583D01*
X82042Y164660D01*
X82106Y164731D01*
X82126Y164772D01*
X82153Y164809D01*
X82187Y164899D01*
X82229Y164985D01*
X82236Y165027D01*
X82253Y165073D01*
X82263Y165200D01*
X82277Y165290D01*
X82277Y171038D01*
X82268Y171102D01*
X82269Y171166D01*
X82248Y171241D01*
X82237Y171317D01*
X82211Y171376D01*
X82193Y171438D01*
X82153Y171504D01*
X82121Y171574D01*
X82079Y171623D01*
X82045Y171678D01*
X81988Y171730D01*
X81937Y171789D01*
X81884Y171824D01*
X81836Y171867D01*
X81766Y171901D01*
X81701Y171943D01*
X81640Y171962D01*
X81582Y171990D01*
X81513Y172001D01*
X81432Y172025D01*
X81347Y172027D01*
X81278Y172037D01*
X67379Y172037D01*
X66486Y172930D01*
X66486Y180500D01*
X66473Y180595D01*
X66468Y180692D01*
X66453Y180735D01*
X66446Y180780D01*
X66407Y180867D01*
X66375Y180958D01*
X66350Y180992D01*
X66330Y181037D01*
X66247Y181134D01*
X66193Y181207D01*
X62946Y184454D01*
X62946Y230347D01*
X64718Y232118D01*
X67594Y234995D01*
X67652Y235072D01*
X67716Y235143D01*
X67736Y235184D01*
X67763Y235220D01*
X67792Y235296D01*
X67793Y235297D01*
X67794Y235300D01*
X67797Y235310D01*
X67839Y235397D01*
X67846Y235439D01*
X67863Y235484D01*
X67867Y235542D01*
X67875Y235566D01*
X67876Y235630D01*
X67887Y235701D01*
X67887Y240890D01*
X68780Y241783D01*
X73270Y241783D01*
X73366Y241796D01*
X73462Y241801D01*
X73504Y241816D01*
X73550Y241823D01*
X73637Y241862D01*
X73728Y241894D01*
X73762Y241919D01*
X73807Y241939D01*
X73904Y242022D01*
X73977Y242075D01*
X75158Y243257D01*
X75159Y243257D01*
X91664Y259763D01*
X197874Y259763D01*
X197906Y259767D01*
X197938Y259765D01*
X198045Y259787D01*
X198153Y259803D01*
X198183Y259816D01*
X198214Y259822D01*
X198311Y259874D01*
X198410Y259919D01*
X198435Y259940D01*
X198463Y259955D01*
X198542Y260031D01*
X198625Y260102D01*
X198642Y260129D01*
X198665Y260152D01*
X198719Y260247D01*
X198779Y260338D01*
X198788Y260369D01*
X198804Y260397D01*
X198830Y260504D01*
X198861Y260608D01*
X198862Y260640D01*
X198869Y260671D01*
X198864Y260781D01*
X198865Y260890D01*
X198857Y260921D01*
X198855Y260953D01*
X198819Y261056D01*
X198790Y261162D01*
X198773Y261189D01*
X198762Y261220D01*
X198709Y261293D01*
X198642Y261402D01*
X198606Y261434D01*
X198581Y261469D01*
X177047Y283002D01*
X175275Y284774D01*
X175275Y300163D01*
X175274Y300172D01*
X175275Y300182D01*
X175254Y300312D01*
X175235Y300442D01*
X175231Y300451D01*
X175230Y300461D01*
X175174Y300579D01*
X175119Y300699D01*
X175113Y300706D01*
X175109Y300715D01*
X175021Y300813D01*
X174936Y300913D01*
X174928Y300919D01*
X174921Y300926D01*
X174862Y300962D01*
X173301Y302523D01*
X172493Y304473D01*
X172493Y306584D01*
X173050Y307928D01*
X173079Y308043D01*
X173114Y308157D01*
X173114Y308179D01*
X173120Y308201D01*
X173116Y308320D01*
X173118Y308439D01*
X173112Y308461D01*
X173111Y308483D01*
X173074Y308596D01*
X173043Y308710D01*
X173031Y308730D01*
X173024Y308751D01*
X172957Y308849D01*
X172895Y308950D01*
X172878Y308966D01*
X172865Y308984D01*
X172773Y309060D01*
X172685Y309139D01*
X172665Y309149D01*
X172647Y309164D01*
X172538Y309211D01*
X172431Y309262D01*
X172410Y309266D01*
X172388Y309275D01*
X172203Y309298D01*
X172127Y309310D01*
X105014Y309310D01*
X104919Y309296D01*
X104823Y309291D01*
X104780Y309276D01*
X104735Y309270D01*
X104648Y309231D01*
X104557Y309199D01*
X104522Y309174D01*
X104478Y309154D01*
X104381Y309071D01*
X104308Y309017D01*
X36898Y241608D01*
X36860Y241556D01*
X36814Y241511D01*
X36775Y241444D01*
X36729Y241382D01*
X36706Y241322D01*
X36674Y241266D01*
X36657Y241191D01*
X36629Y241118D01*
X36624Y241054D01*
X36610Y240992D01*
X36613Y240914D01*
X36608Y240837D01*
X36621Y240774D01*
X36624Y240710D01*
X36649Y240637D01*
X36665Y240561D01*
X36695Y240504D01*
X36716Y240443D01*
X36758Y240387D01*
X36798Y240312D01*
X36857Y240251D01*
X36898Y240194D01*
X39503Y237590D01*
X40895Y234229D01*
X40895Y230591D01*
X39503Y227230D01*
X36930Y224657D01*
X33569Y223265D01*
X14691Y223265D01*
X11330Y224657D01*
X10597Y225391D01*
X10571Y225410D01*
X10550Y225435D01*
X10458Y225495D01*
X10371Y225560D01*
X10341Y225571D01*
X10314Y225589D01*
X10209Y225621D01*
X10107Y225660D01*
X10075Y225662D01*
X10044Y225672D01*
X9935Y225673D01*
X9826Y225681D01*
X9794Y225675D01*
X9762Y225675D01*
X9657Y225646D01*
X9550Y225624D01*
X9521Y225609D01*
X9490Y225600D01*
X9397Y225543D01*
X9301Y225491D01*
X9278Y225469D01*
X9250Y225452D01*
X9177Y225371D01*
X9099Y225295D01*
X9083Y225267D01*
X9061Y225243D01*
X9014Y225145D01*
X8960Y225049D01*
X8952Y225018D01*
X8938Y224989D01*
X8924Y224899D01*
X8895Y224775D01*
X8897Y224726D01*
X8891Y224684D01*
X8891Y215995D01*
X8904Y215901D01*
X8909Y215806D01*
X8924Y215762D01*
X8931Y215716D01*
X8970Y215629D01*
X9001Y215539D01*
X9028Y215501D01*
X9047Y215459D01*
X9109Y215386D01*
X9163Y215309D01*
X9200Y215280D01*
X9230Y215244D01*
X9310Y215192D01*
X9384Y215133D01*
X9427Y215115D01*
X9466Y215090D01*
X9557Y215062D01*
X9645Y215026D01*
X9691Y215021D01*
X9736Y215007D01*
X9831Y215006D01*
X9925Y214996D01*
X9971Y215004D01*
X10018Y215004D01*
X10109Y215029D01*
X10203Y215046D01*
X10242Y215066D01*
X10290Y215079D01*
X10397Y215145D01*
X10477Y215186D01*
X11185Y215700D01*
X12610Y216426D01*
X14131Y216921D01*
X15710Y217171D01*
X22131Y217171D01*
X22131Y208010D01*
X22140Y207947D01*
X22139Y207882D01*
X22160Y207808D01*
X22171Y207731D01*
X22197Y207672D01*
X22214Y207610D01*
X22255Y207544D01*
X22287Y207474D01*
X22329Y207425D01*
X22362Y207370D01*
X22420Y207319D01*
X22470Y207260D01*
X22524Y207224D01*
X22572Y207181D01*
X22641Y207148D01*
X22706Y207105D01*
X22768Y207086D01*
X22825Y207058D01*
X22895Y207048D01*
X22976Y207023D01*
X23061Y207022D01*
X23130Y207011D01*
X24131Y207011D01*
X24131Y207009D01*
X23130Y207009D01*
X23066Y207000D01*
X23002Y207001D01*
X22927Y206980D01*
X22851Y206969D01*
X22792Y206943D01*
X22730Y206926D01*
X22664Y206885D01*
X22594Y206853D01*
X22545Y206811D01*
X22490Y206778D01*
X22438Y206720D01*
X22380Y206670D01*
X22344Y206616D01*
X22301Y206568D01*
X22268Y206499D01*
X22225Y206434D01*
X22206Y206372D01*
X22178Y206314D01*
X22167Y206245D01*
X22143Y206164D01*
X22142Y206079D01*
X22131Y206010D01*
X22131Y196849D01*
X15710Y196849D01*
X14131Y197099D01*
X12610Y197594D01*
X11185Y198320D01*
X10477Y198834D01*
X10393Y198878D01*
X10314Y198930D01*
X10269Y198944D01*
X10228Y198966D01*
X10135Y198985D01*
X10044Y199013D01*
X9998Y199013D01*
X9952Y199023D01*
X9857Y199015D01*
X9762Y199016D01*
X9717Y199004D01*
X9671Y199000D01*
X9582Y198966D01*
X9490Y198941D01*
X9451Y198917D01*
X9407Y198900D01*
X9331Y198843D01*
X9250Y198793D01*
X9219Y198758D01*
X9182Y198730D01*
X9125Y198654D01*
X9061Y198584D01*
X9041Y198542D01*
X9013Y198504D01*
X8980Y198415D01*
X8938Y198330D01*
X8932Y198287D01*
X8914Y198240D01*
X8905Y198114D01*
X8891Y198025D01*
X8891Y193687D01*
X8895Y193655D01*
X8893Y193623D01*
X8915Y193516D01*
X8931Y193408D01*
X8944Y193378D01*
X8950Y193347D01*
X9002Y193250D01*
X9047Y193151D01*
X9068Y193126D01*
X9083Y193098D01*
X9159Y193019D01*
X9230Y192936D01*
X9257Y192919D01*
X9280Y192896D01*
X9375Y192842D01*
X9466Y192782D01*
X9497Y192772D01*
X9525Y192757D01*
X9631Y192731D01*
X9736Y192699D01*
X9768Y192699D01*
X9799Y192692D01*
X9909Y192697D01*
X10018Y192696D01*
X10049Y192704D01*
X10081Y192706D01*
X10184Y192742D01*
X10290Y192771D01*
X10317Y192788D01*
X10348Y192798D01*
X10421Y192852D01*
X10530Y192919D01*
X10562Y192955D01*
X10597Y192980D01*
X11499Y193883D01*
X25462Y193883D01*
X26356Y192990D01*
X26356Y172930D01*
X25462Y172037D01*
X11499Y172037D01*
X10597Y172940D01*
X10571Y172959D01*
X10550Y172984D01*
X10458Y173044D01*
X10371Y173109D01*
X10341Y173121D01*
X10314Y173138D01*
X10209Y173170D01*
X10107Y173209D01*
X10075Y173211D01*
X10044Y173221D01*
X9935Y173222D01*
X9826Y173231D01*
X9794Y173224D01*
X9762Y173224D01*
X9657Y173195D01*
X9550Y173173D01*
X9521Y173158D01*
X9490Y173149D01*
X9397Y173092D01*
X9301Y173041D01*
X9278Y173018D01*
X9250Y173001D01*
X9177Y172920D01*
X9099Y172844D01*
X9083Y172816D01*
X9061Y172792D01*
X9014Y172694D01*
X8960Y172598D01*
X8952Y172567D01*
X8938Y172538D01*
X8924Y172449D01*
X8895Y172324D01*
X8897Y172276D01*
X8891Y172233D01*
X8891Y163207D01*
X8895Y163175D01*
X8893Y163143D01*
X8915Y163036D01*
X8931Y162928D01*
X8944Y162898D01*
X8950Y162867D01*
X9002Y162770D01*
X9047Y162671D01*
X9068Y162646D01*
X9083Y162618D01*
X9159Y162539D01*
X9230Y162456D01*
X9257Y162439D01*
X9280Y162416D01*
X9375Y162362D01*
X9466Y162302D01*
X9497Y162292D01*
X9525Y162277D01*
X9631Y162251D01*
X9736Y162219D01*
X9768Y162219D01*
X9799Y162212D01*
X9909Y162217D01*
X10018Y162216D01*
X10049Y162224D01*
X10081Y162226D01*
X10184Y162262D01*
X10290Y162291D01*
X10317Y162308D01*
X10348Y162318D01*
X10421Y162372D01*
X10530Y162439D01*
X10562Y162475D01*
X10597Y162500D01*
X11499Y163403D01*
X25462Y163403D01*
X26356Y162510D01*
X26356Y142450D01*
X25462Y141557D01*
X11499Y141557D01*
X10597Y142460D01*
X10571Y142479D01*
X10550Y142504D01*
X10458Y142564D01*
X10371Y142629D01*
X10341Y142641D01*
X10314Y142658D01*
X10209Y142690D01*
X10107Y142729D01*
X10075Y142731D01*
X10044Y142741D01*
X9935Y142742D01*
X9826Y142751D01*
X9794Y142744D01*
X9762Y142744D01*
X9657Y142715D01*
X9550Y142693D01*
X9521Y142678D01*
X9490Y142669D01*
X9397Y142612D01*
X9301Y142561D01*
X9278Y142538D01*
X9250Y142521D01*
X9177Y142440D01*
X9099Y142364D01*
X9083Y142336D01*
X9061Y142312D01*
X9014Y142214D01*
X8960Y142118D01*
X8952Y142087D01*
X8938Y142058D01*
X8924Y141969D01*
X8895Y141844D01*
X8897Y141796D01*
X8891Y141753D01*
X8891Y74754D01*
X8899Y74696D01*
X8898Y74637D01*
X8919Y74557D01*
X8931Y74475D01*
X8955Y74421D01*
X8970Y74364D01*
X9013Y74293D01*
X9047Y74218D01*
X9085Y74173D01*
X9115Y74123D01*
X9176Y74066D01*
X9230Y74004D01*
X9279Y73971D01*
X9323Y73931D01*
X9397Y73894D01*
X9466Y73849D01*
X9522Y73832D01*
X9575Y73806D01*
X9657Y73791D01*
X9736Y73767D01*
X9795Y73766D01*
X9853Y73755D01*
X9935Y73764D01*
X10018Y73763D01*
X10075Y73779D01*
X10133Y73785D01*
X10210Y73816D01*
X10290Y73838D01*
X10340Y73869D01*
X10394Y73891D01*
X10459Y73943D01*
X10530Y73986D01*
X10569Y74030D01*
X10615Y74067D01*
X10658Y74128D01*
X10719Y74196D01*
X10753Y74266D01*
X10790Y74320D01*
X11583Y75967D01*
X13253Y78624D01*
X15210Y81078D01*
X17428Y83296D01*
X19882Y85253D01*
X22539Y86923D01*
X25367Y88284D01*
X28329Y89321D01*
X31388Y90019D01*
X34077Y90322D01*
X34077Y63430D01*
X34086Y63367D01*
X34085Y63302D01*
X34106Y63228D01*
X34117Y63151D01*
X34143Y63092D01*
X34160Y63030D01*
X34201Y62964D01*
X34233Y62894D01*
X34275Y62845D01*
X34308Y62790D01*
X34366Y62739D01*
X34416Y62680D01*
X34470Y62644D01*
X34518Y62601D01*
X34587Y62568D01*
X34652Y62525D01*
X34714Y62506D01*
X34771Y62478D01*
X34841Y62468D01*
X34922Y62443D01*
X35007Y62442D01*
X35076Y62431D01*
X36077Y62431D01*
X36077Y62429D01*
X35076Y62429D01*
X35012Y62420D01*
X34948Y62421D01*
X34873Y62400D01*
X34797Y62389D01*
X34738Y62363D01*
X34676Y62346D01*
X34610Y62305D01*
X34540Y62273D01*
X34491Y62231D01*
X34436Y62198D01*
X34384Y62140D01*
X34326Y62090D01*
X34290Y62036D01*
X34247Y61988D01*
X34214Y61919D01*
X34171Y61854D01*
X34152Y61792D01*
X34124Y61734D01*
X34113Y61665D01*
X34089Y61584D01*
X34088Y61499D01*
X34077Y61430D01*
X34077Y34538D01*
X31388Y34841D01*
X28329Y35539D01*
X25367Y36576D01*
X22539Y37937D01*
X19882Y39607D01*
X17428Y41564D01*
X15210Y43782D01*
X13253Y46236D01*
X11583Y48893D01*
X10790Y50540D01*
X10757Y50588D01*
X10733Y50642D01*
X10679Y50705D01*
X10633Y50774D01*
X10588Y50812D01*
X10550Y50856D01*
X10481Y50902D01*
X10417Y50955D01*
X10363Y50979D01*
X10314Y51011D01*
X10235Y51035D01*
X10159Y51068D01*
X10100Y51076D01*
X10044Y51093D01*
X9961Y51094D01*
X9879Y51105D01*
X9821Y51096D01*
X9762Y51097D01*
X9682Y51075D01*
X9600Y51062D01*
X9547Y51038D01*
X9490Y51022D01*
X9420Y50978D01*
X9345Y50943D01*
X9301Y50905D01*
X9250Y50874D01*
X9195Y50812D01*
X9133Y50758D01*
X9101Y50708D01*
X9061Y50664D01*
X9025Y50590D01*
X8981Y50520D01*
X8964Y50464D01*
X8938Y50411D01*
X8927Y50337D01*
X8901Y50250D01*
X8901Y50171D01*
X8891Y50106D01*
X8891Y9890D01*
X8900Y9826D01*
X8899Y9762D01*
X8920Y9687D01*
X8931Y9611D01*
X8957Y9552D01*
X8974Y9490D01*
X9015Y9424D01*
X9047Y9354D01*
X9089Y9305D01*
X9122Y9250D01*
X9180Y9198D01*
X9230Y9140D01*
X9284Y9104D01*
X9332Y9061D01*
X9401Y9028D01*
X9466Y8985D01*
X9528Y8966D01*
X9585Y8938D01*
X9655Y8927D01*
X9736Y8903D01*
X9821Y8902D01*
X9890Y8891D01*
X451660Y8891D01*
X451722Y8900D01*
G37*
G36*
X202446Y79225D02*
X202446Y79225D01*
X202554Y79236D01*
X202584Y79248D01*
X202616Y79253D01*
X202715Y79300D01*
X202816Y79340D01*
X202842Y79360D01*
X202871Y79374D01*
X202953Y79447D01*
X203039Y79514D01*
X203058Y79540D01*
X203082Y79561D01*
X203129Y79639D01*
X203204Y79743D01*
X203220Y79788D01*
X203242Y79825D01*
X205014Y84103D01*
X208713Y87802D01*
X213546Y89804D01*
X218778Y89804D01*
X223611Y87802D01*
X224238Y87174D01*
X224290Y87136D01*
X224335Y87089D01*
X224402Y87051D01*
X224464Y87005D01*
X224524Y86982D01*
X224580Y86950D01*
X224655Y86933D01*
X224728Y86905D01*
X224792Y86900D01*
X224854Y86886D01*
X224932Y86889D01*
X225009Y86883D01*
X225072Y86897D01*
X225136Y86900D01*
X225209Y86925D01*
X225285Y86941D01*
X225342Y86971D01*
X225403Y86992D01*
X225459Y87034D01*
X225534Y87074D01*
X225595Y87133D01*
X225652Y87174D01*
X232896Y94419D01*
X241564Y94419D01*
X241659Y94432D01*
X241755Y94437D01*
X241799Y94452D01*
X241844Y94459D01*
X241931Y94498D01*
X242022Y94530D01*
X242056Y94555D01*
X242100Y94575D01*
X242198Y94658D01*
X242271Y94711D01*
X244833Y97273D01*
X244890Y97350D01*
X244955Y97421D01*
X244975Y97462D01*
X245002Y97499D01*
X245036Y97589D01*
X245078Y97675D01*
X245084Y97717D01*
X245101Y97763D01*
X245111Y97890D01*
X245125Y97980D01*
X245125Y143799D01*
X245116Y143862D01*
X245117Y143917D01*
X245109Y143946D01*
X245107Y143991D01*
X245092Y144034D01*
X245085Y144079D01*
X245052Y144153D01*
X245042Y144189D01*
X245033Y144204D01*
X245014Y144257D01*
X244989Y144291D01*
X244969Y144336D01*
X244906Y144410D01*
X244894Y144429D01*
X244879Y144442D01*
X244833Y144506D01*
X243644Y145694D01*
X243567Y145752D01*
X243496Y145817D01*
X243455Y145836D01*
X243419Y145864D01*
X243329Y145898D01*
X243242Y145940D01*
X243200Y145946D01*
X243155Y145963D01*
X243027Y145973D01*
X242938Y145987D01*
X242644Y145987D01*
X231321Y157310D01*
X231321Y158573D01*
X234628Y161880D01*
X234629Y161880D01*
X238100Y165352D01*
X241635Y168887D01*
X241636Y168887D01*
X265368Y192620D01*
X265426Y192697D01*
X265490Y192768D01*
X265510Y192809D01*
X265537Y192845D01*
X265571Y192935D01*
X265613Y193022D01*
X265620Y193064D01*
X265637Y193109D01*
X265647Y193237D01*
X265661Y193326D01*
X265661Y193631D01*
X265834Y194278D01*
X266168Y194857D01*
X266759Y195447D01*
X273770Y188436D01*
X273771Y188436D01*
X280782Y181425D01*
X280445Y181087D01*
X280406Y181036D01*
X280360Y180991D01*
X280322Y180924D01*
X280276Y180862D01*
X280253Y180802D01*
X280221Y180746D01*
X280203Y180670D01*
X280176Y180598D01*
X280171Y180534D01*
X280156Y180471D01*
X280160Y180394D01*
X280154Y180317D01*
X280167Y180254D01*
X280171Y180190D01*
X280196Y180117D01*
X280212Y180041D01*
X280242Y179984D01*
X280263Y179923D01*
X280305Y179867D01*
X280344Y179792D01*
X280403Y179731D01*
X280445Y179674D01*
X281557Y178563D01*
X281633Y178505D01*
X281705Y178441D01*
X281746Y178421D01*
X281782Y178393D01*
X281872Y178359D01*
X281958Y178318D01*
X282001Y178311D01*
X282046Y178294D01*
X282174Y178284D01*
X282263Y178270D01*
X306734Y178270D01*
X306829Y178284D01*
X306925Y178288D01*
X306968Y178303D01*
X307013Y178310D01*
X307100Y178349D01*
X307191Y178381D01*
X307226Y178406D01*
X307270Y178426D01*
X307367Y178509D01*
X307440Y178563D01*
X311374Y182497D01*
X396624Y182497D01*
X396710Y182509D01*
X396796Y182512D01*
X396849Y182529D01*
X396903Y182536D01*
X396982Y182572D01*
X397064Y182599D01*
X397110Y182630D01*
X397160Y182653D01*
X397226Y182709D01*
X397297Y182758D01*
X397332Y182800D01*
X397374Y182836D01*
X397422Y182909D01*
X397477Y182976D01*
X397498Y183026D01*
X397529Y183072D01*
X397554Y183155D01*
X397588Y183235D01*
X397595Y183289D01*
X397611Y183342D01*
X397612Y183428D01*
X397623Y183515D01*
X397614Y183569D01*
X397615Y183624D01*
X397592Y183707D01*
X397578Y183793D01*
X397554Y183843D01*
X397539Y183895D01*
X397494Y183969D01*
X397457Y184048D01*
X397420Y184089D01*
X397391Y184135D01*
X397327Y184194D01*
X397269Y184259D01*
X397226Y184285D01*
X397182Y184324D01*
X397080Y184374D01*
X397006Y184419D01*
X394846Y185314D01*
X392273Y187886D01*
X391429Y189925D01*
X391424Y189933D01*
X391422Y189942D01*
X391352Y190055D01*
X391285Y190167D01*
X391278Y190174D01*
X391273Y190182D01*
X391176Y190270D01*
X391080Y190360D01*
X391071Y190365D01*
X391064Y190371D01*
X390946Y190428D01*
X390828Y190488D01*
X390819Y190490D01*
X390810Y190494D01*
X390734Y190506D01*
X390551Y190541D01*
X390527Y190538D01*
X390506Y190542D01*
X324048Y190542D01*
X296173Y218417D01*
X296096Y218474D01*
X296025Y218539D01*
X295984Y218559D01*
X295947Y218586D01*
X295857Y218620D01*
X295771Y218662D01*
X295729Y218668D01*
X295683Y218685D01*
X295556Y218695D01*
X295466Y218709D01*
X286985Y218709D01*
X286890Y218696D01*
X286793Y218691D01*
X286750Y218676D01*
X286705Y218669D01*
X286618Y218630D01*
X286527Y218598D01*
X286493Y218573D01*
X286448Y218553D01*
X286351Y218470D01*
X286278Y218417D01*
X286106Y218244D01*
X286048Y218167D01*
X285983Y218096D01*
X285964Y218055D01*
X285936Y218019D01*
X285902Y217929D01*
X285860Y217842D01*
X285854Y217800D01*
X285837Y217755D01*
X285827Y217627D01*
X285813Y217538D01*
X285813Y217244D01*
X274490Y205921D01*
X273227Y205921D01*
X269920Y209228D01*
X269920Y209229D01*
X259377Y219771D01*
X256534Y222615D01*
X256482Y222653D01*
X256437Y222699D01*
X256370Y222737D01*
X256308Y222784D01*
X256248Y222807D01*
X256192Y222838D01*
X256117Y222856D01*
X256044Y222883D01*
X255980Y222888D01*
X255918Y222903D01*
X255840Y222899D01*
X255763Y222905D01*
X255700Y222892D01*
X255636Y222889D01*
X255563Y222863D01*
X255487Y222848D01*
X255430Y222817D01*
X255370Y222796D01*
X255313Y222755D01*
X255238Y222715D01*
X255177Y222656D01*
X255121Y222615D01*
X246099Y213593D01*
X246041Y213516D01*
X245976Y213444D01*
X245957Y213403D01*
X245929Y213367D01*
X245895Y213277D01*
X245853Y213191D01*
X245847Y213148D01*
X245830Y213103D01*
X245820Y212975D01*
X245806Y212886D01*
X245806Y204197D01*
X245807Y204188D01*
X245806Y204178D01*
X245827Y204048D01*
X245846Y203918D01*
X245850Y203909D01*
X245851Y203900D01*
X245908Y203780D01*
X245962Y203661D01*
X245968Y203654D01*
X245972Y203645D01*
X246060Y203547D01*
X246145Y203447D01*
X246153Y203441D01*
X246160Y203434D01*
X246219Y203398D01*
X247780Y201837D01*
X248588Y199887D01*
X248588Y197776D01*
X247780Y195825D01*
X246287Y194332D01*
X244337Y193524D01*
X242526Y193524D01*
X242462Y193515D01*
X242398Y193516D01*
X242323Y193496D01*
X242247Y193485D01*
X242188Y193458D01*
X242126Y193441D01*
X242060Y193400D01*
X241990Y193368D01*
X241941Y193327D01*
X241886Y193293D01*
X241834Y193235D01*
X241776Y193185D01*
X241740Y193131D01*
X241697Y193084D01*
X241664Y193014D01*
X241621Y192949D01*
X241602Y192888D01*
X241574Y192830D01*
X241563Y192760D01*
X241539Y192679D01*
X241538Y192595D01*
X241527Y192525D01*
X241527Y190714D01*
X240719Y188764D01*
X239226Y187271D01*
X237276Y186463D01*
X235164Y186463D01*
X233214Y187271D01*
X231721Y188764D01*
X230913Y190714D01*
X230913Y192826D01*
X231721Y194776D01*
X233273Y196328D01*
X233321Y196356D01*
X233328Y196363D01*
X233336Y196368D01*
X233424Y196466D01*
X233514Y196562D01*
X233518Y196570D01*
X233525Y196577D01*
X233582Y196696D01*
X233642Y196813D01*
X233644Y196823D01*
X233648Y196831D01*
X233660Y196908D01*
X233694Y197091D01*
X233692Y197114D01*
X233695Y197136D01*
X233695Y215591D01*
X233714Y215640D01*
X233716Y215673D01*
X233726Y215703D01*
X233727Y215812D01*
X233736Y215921D01*
X233729Y215953D01*
X233729Y215985D01*
X233700Y216091D01*
X233678Y216197D01*
X233663Y216226D01*
X233654Y216257D01*
X233597Y216350D01*
X233546Y216446D01*
X233523Y216470D01*
X233506Y216497D01*
X233425Y216570D01*
X233349Y216649D01*
X233321Y216665D01*
X233297Y216686D01*
X233199Y216734D01*
X233104Y216788D01*
X233072Y216795D01*
X233043Y216809D01*
X232954Y216823D01*
X232829Y216853D01*
X232781Y216850D01*
X232738Y216857D01*
X232668Y216857D01*
X230718Y217665D01*
X229225Y219158D01*
X228668Y220502D01*
X228608Y220603D01*
X228552Y220708D01*
X228536Y220725D01*
X228525Y220744D01*
X228438Y220825D01*
X228356Y220910D01*
X228336Y220922D01*
X228319Y220937D01*
X228213Y220991D01*
X228110Y221049D01*
X228088Y221055D01*
X228068Y221065D01*
X227951Y221087D01*
X227836Y221114D01*
X227813Y221113D01*
X227791Y221117D01*
X227673Y221106D01*
X227554Y221100D01*
X227532Y221093D01*
X227510Y221090D01*
X227400Y221047D01*
X227288Y221008D01*
X227270Y220995D01*
X227248Y220986D01*
X227101Y220871D01*
X227039Y220826D01*
X206599Y200387D01*
X206547Y200317D01*
X206488Y200254D01*
X206463Y200205D01*
X206430Y200161D01*
X206400Y200080D01*
X206360Y200002D01*
X206350Y199948D01*
X206331Y199897D01*
X206324Y199811D01*
X206308Y199725D01*
X206313Y199671D01*
X206309Y199616D01*
X206327Y199531D01*
X206335Y199445D01*
X206355Y199393D01*
X206366Y199340D01*
X206407Y199263D01*
X206439Y199183D01*
X206473Y199139D01*
X206499Y199091D01*
X206559Y199029D01*
X206613Y198960D01*
X206657Y198928D01*
X206696Y198889D01*
X206771Y198846D01*
X206842Y198795D01*
X206893Y198777D01*
X206941Y198750D01*
X207026Y198730D01*
X207107Y198701D01*
X207162Y198697D01*
X207215Y198685D01*
X207302Y198689D01*
X207389Y198684D01*
X207438Y198696D01*
X207497Y198699D01*
X207605Y198736D01*
X207688Y198757D01*
X209764Y199617D01*
X211876Y199617D01*
X213826Y198809D01*
X215319Y197316D01*
X216127Y195366D01*
X216127Y193254D01*
X215319Y191304D01*
X213767Y189752D01*
X213719Y189724D01*
X213712Y189717D01*
X213704Y189712D01*
X213616Y189614D01*
X213526Y189518D01*
X213522Y189510D01*
X213515Y189503D01*
X213458Y189384D01*
X213398Y189267D01*
X213396Y189257D01*
X213392Y189249D01*
X213380Y189172D01*
X213346Y188989D01*
X213348Y188966D01*
X213345Y188944D01*
X213345Y176882D01*
X213349Y176850D01*
X213347Y176818D01*
X213369Y176711D01*
X213385Y176603D01*
X213398Y176573D01*
X213404Y176542D01*
X213456Y176445D01*
X213501Y176346D01*
X213522Y176321D01*
X213537Y176293D01*
X213613Y176215D01*
X213684Y176132D01*
X213711Y176114D01*
X213734Y176091D01*
X213829Y176037D01*
X213920Y175977D01*
X213951Y175968D01*
X213979Y175952D01*
X214085Y175927D01*
X214190Y175895D01*
X214222Y175894D01*
X214253Y175887D01*
X214363Y175892D01*
X214472Y175891D01*
X214503Y175900D01*
X214535Y175901D01*
X214638Y175937D01*
X214744Y175966D01*
X214771Y175983D01*
X214802Y175994D01*
X214875Y176047D01*
X214984Y176114D01*
X215016Y176150D01*
X215051Y176175D01*
X216094Y177219D01*
X218044Y178027D01*
X220156Y178027D01*
X222106Y177219D01*
X223599Y175726D01*
X224407Y173776D01*
X224407Y171780D01*
X224420Y171685D01*
X224425Y171588D01*
X224440Y171545D01*
X224447Y171500D01*
X224486Y171413D01*
X224500Y171372D01*
X224501Y171369D01*
X224502Y171368D01*
X224518Y171322D01*
X224543Y171288D01*
X224563Y171243D01*
X224620Y171177D01*
X224649Y171129D01*
X224677Y171104D01*
X224699Y171073D01*
X226442Y169331D01*
X226442Y158198D01*
X226171Y157928D01*
X226114Y157851D01*
X226049Y157780D01*
X226029Y157739D01*
X226002Y157702D01*
X225968Y157612D01*
X225926Y157526D01*
X225920Y157484D01*
X225902Y157439D01*
X225894Y157325D01*
X214556Y145987D01*
X213292Y145987D01*
X211066Y148214D01*
X210989Y148272D01*
X210917Y148336D01*
X210876Y148356D01*
X210840Y148383D01*
X210750Y148417D01*
X210664Y148459D01*
X210622Y148466D01*
X210576Y148483D01*
X210448Y148493D01*
X210359Y148507D01*
X210054Y148507D01*
X209408Y148680D01*
X208828Y149014D01*
X208238Y149605D01*
X215249Y156616D01*
X215288Y156667D01*
X215334Y156712D01*
X215372Y156780D01*
X215418Y156842D01*
X215441Y156902D01*
X215473Y156958D01*
X215491Y157033D01*
X215518Y157105D01*
X215523Y157169D01*
X215538Y157232D01*
X215534Y157310D01*
X215540Y157387D01*
X215527Y157449D01*
X215523Y157514D01*
X215498Y157587D01*
X215482Y157663D01*
X215452Y157719D01*
X215431Y157780D01*
X215390Y157837D01*
X215350Y157912D01*
X215290Y157972D01*
X215249Y158029D01*
X215198Y158068D01*
X215153Y158114D01*
X215085Y158152D01*
X215023Y158199D01*
X214963Y158221D01*
X214907Y158253D01*
X214832Y158271D01*
X214759Y158298D01*
X214695Y158303D01*
X214633Y158318D01*
X214555Y158314D01*
X214478Y158320D01*
X214416Y158307D01*
X214351Y158304D01*
X214278Y158278D01*
X214202Y158262D01*
X214145Y158232D01*
X214085Y158211D01*
X214028Y158170D01*
X213953Y158130D01*
X213892Y158071D01*
X213836Y158029D01*
X206825Y151018D01*
X206488Y151355D01*
X206436Y151394D01*
X206391Y151440D01*
X206324Y151478D01*
X206262Y151524D01*
X206202Y151547D01*
X206146Y151579D01*
X206070Y151597D01*
X205998Y151624D01*
X205934Y151629D01*
X205871Y151644D01*
X205794Y151640D01*
X205717Y151646D01*
X205654Y151633D01*
X205590Y151629D01*
X205517Y151604D01*
X205441Y151588D01*
X205384Y151558D01*
X205323Y151537D01*
X205267Y151496D01*
X205192Y151456D01*
X205131Y151396D01*
X205074Y151355D01*
X191293Y137574D01*
X191236Y137497D01*
X191171Y137426D01*
X191151Y137385D01*
X191124Y137349D01*
X191090Y137259D01*
X191048Y137172D01*
X191042Y137130D01*
X191025Y137085D01*
X191015Y136957D01*
X191014Y136954D01*
X191013Y136949D01*
X191013Y136944D01*
X191001Y136868D01*
X191001Y90509D01*
X191002Y90500D01*
X191001Y90490D01*
X191022Y90360D01*
X191041Y90230D01*
X191044Y90221D01*
X191046Y90212D01*
X191103Y90092D01*
X191157Y89973D01*
X191163Y89966D01*
X191167Y89957D01*
X191255Y89858D01*
X191340Y89759D01*
X191348Y89753D01*
X191354Y89746D01*
X191420Y89706D01*
X191576Y89604D01*
X191599Y89597D01*
X191618Y89586D01*
X195925Y87802D01*
X199624Y84103D01*
X201396Y79825D01*
X201412Y79797D01*
X201422Y79766D01*
X201484Y79676D01*
X201539Y79582D01*
X201563Y79560D01*
X201581Y79533D01*
X201666Y79464D01*
X201745Y79389D01*
X201774Y79374D01*
X201799Y79354D01*
X201899Y79311D01*
X201997Y79261D01*
X202028Y79255D01*
X202058Y79243D01*
X202166Y79229D01*
X202274Y79209D01*
X202306Y79212D01*
X202338Y79208D01*
X202446Y79225D01*
G37*
G36*
X372290Y65043D02*
X372290Y65043D01*
X372386Y65048D01*
X372430Y65063D01*
X372475Y65070D01*
X372562Y65109D01*
X372653Y65141D01*
X372687Y65166D01*
X372731Y65186D01*
X372829Y65269D01*
X372902Y65322D01*
X432793Y125213D01*
X432850Y125290D01*
X432915Y125361D01*
X432935Y125402D01*
X432962Y125439D01*
X432996Y125529D01*
X433038Y125615D01*
X433044Y125657D01*
X433061Y125703D01*
X433071Y125830D01*
X433085Y125920D01*
X433085Y145860D01*
X433072Y145955D01*
X433067Y146051D01*
X433052Y146095D01*
X433045Y146140D01*
X433006Y146227D01*
X432974Y146318D01*
X432949Y146352D01*
X432929Y146396D01*
X432846Y146494D01*
X432793Y146567D01*
X431447Y147913D01*
X431421Y147932D01*
X431400Y147957D01*
X431308Y148017D01*
X431221Y148082D01*
X431191Y148093D01*
X431164Y148111D01*
X431059Y148143D01*
X430957Y148182D01*
X430925Y148184D01*
X430894Y148194D01*
X430785Y148195D01*
X430676Y148203D01*
X430644Y148197D01*
X430612Y148197D01*
X430507Y148168D01*
X430400Y148146D01*
X430371Y148131D01*
X430340Y148122D01*
X430247Y148065D01*
X430151Y148013D01*
X430128Y147991D01*
X430100Y147974D01*
X430027Y147893D01*
X429949Y147817D01*
X429933Y147789D01*
X429911Y147765D01*
X429864Y147666D01*
X429810Y147571D01*
X429802Y147540D01*
X429788Y147511D01*
X429774Y147421D01*
X429745Y147297D01*
X429747Y147248D01*
X429741Y147206D01*
X429741Y128922D01*
X428349Y125560D01*
X425776Y122988D01*
X422415Y121596D01*
X418777Y121596D01*
X415416Y122988D01*
X415204Y123200D01*
X415152Y123239D01*
X415108Y123285D01*
X415040Y123323D01*
X414978Y123369D01*
X414918Y123392D01*
X414862Y123424D01*
X414787Y123442D01*
X414714Y123469D01*
X414650Y123474D01*
X414588Y123489D01*
X414510Y123485D01*
X414433Y123491D01*
X414370Y123478D01*
X414306Y123474D01*
X414233Y123449D01*
X414157Y123433D01*
X414100Y123403D01*
X414040Y123382D01*
X413983Y123341D01*
X413908Y123301D01*
X413847Y123241D01*
X413791Y123200D01*
X405407Y114817D01*
X403636Y113045D01*
X388844Y113045D01*
X387073Y114817D01*
X373680Y128209D01*
X373604Y128267D01*
X373532Y128331D01*
X373491Y128351D01*
X373455Y128378D01*
X373365Y128412D01*
X373278Y128454D01*
X373236Y128461D01*
X373191Y128478D01*
X373063Y128488D01*
X372974Y128502D01*
X298675Y128502D01*
X298643Y128497D01*
X298610Y128500D01*
X298504Y128477D01*
X298395Y128462D01*
X298366Y128449D01*
X298334Y128442D01*
X298238Y128391D01*
X298138Y128346D01*
X298114Y128325D01*
X298085Y128310D01*
X298007Y128233D01*
X297924Y128162D01*
X297906Y128135D01*
X297883Y128113D01*
X297830Y128018D01*
X297770Y127926D01*
X297760Y127896D01*
X297744Y127867D01*
X297719Y127761D01*
X297687Y127657D01*
X297687Y127625D01*
X297679Y127593D01*
X297685Y127484D01*
X297683Y127375D01*
X297692Y127344D01*
X297694Y127311D01*
X297730Y127208D01*
X297759Y127103D01*
X297776Y127075D01*
X297786Y127045D01*
X297839Y126972D01*
X297907Y126863D01*
X297943Y126830D01*
X297968Y126796D01*
X328825Y95939D01*
X328902Y95881D01*
X328973Y95817D01*
X329014Y95797D01*
X329050Y95770D01*
X329140Y95736D01*
X329227Y95694D01*
X329269Y95687D01*
X329314Y95670D01*
X329442Y95660D01*
X329531Y95646D01*
X338662Y95646D01*
X346072Y88236D01*
X346080Y88231D01*
X346086Y88223D01*
X346193Y88146D01*
X346298Y88067D01*
X346307Y88064D01*
X346314Y88058D01*
X346438Y88014D01*
X346562Y87967D01*
X346571Y87967D01*
X346580Y87964D01*
X346712Y87956D01*
X346843Y87946D01*
X346852Y87948D01*
X346862Y87947D01*
X346937Y87965D01*
X347119Y88003D01*
X347140Y88015D01*
X347161Y88020D01*
X351468Y89804D01*
X356700Y89804D01*
X361533Y87802D01*
X365232Y84103D01*
X367234Y79270D01*
X367234Y74038D01*
X365232Y69205D01*
X362762Y66736D01*
X362743Y66710D01*
X362718Y66689D01*
X362658Y66597D01*
X362593Y66510D01*
X362581Y66480D01*
X362564Y66453D01*
X362532Y66348D01*
X362493Y66246D01*
X362491Y66214D01*
X362481Y66183D01*
X362480Y66074D01*
X362471Y65965D01*
X362478Y65933D01*
X362478Y65901D01*
X362507Y65796D01*
X362529Y65689D01*
X362544Y65660D01*
X362553Y65629D01*
X362610Y65536D01*
X362662Y65440D01*
X362684Y65417D01*
X362701Y65389D01*
X362782Y65316D01*
X362858Y65238D01*
X362886Y65222D01*
X362910Y65200D01*
X363009Y65153D01*
X363104Y65099D01*
X363135Y65091D01*
X363164Y65077D01*
X363253Y65063D01*
X363378Y65034D01*
X363427Y65036D01*
X363469Y65030D01*
X372195Y65030D01*
X372290Y65043D01*
G37*
G36*
X312809Y79532D02*
X312809Y79532D01*
X312917Y79543D01*
X312947Y79555D01*
X312979Y79560D01*
X313078Y79607D01*
X313179Y79647D01*
X313205Y79667D01*
X313234Y79681D01*
X313316Y79753D01*
X313402Y79821D01*
X313421Y79847D01*
X313445Y79868D01*
X313492Y79945D01*
X313567Y80049D01*
X313583Y80095D01*
X313605Y80131D01*
X315250Y84103D01*
X318949Y87802D01*
X323782Y89804D01*
X325407Y89804D01*
X325439Y89808D01*
X325471Y89806D01*
X325578Y89828D01*
X325686Y89844D01*
X325715Y89857D01*
X325747Y89863D01*
X325843Y89915D01*
X325943Y89960D01*
X325967Y89981D01*
X325996Y89996D01*
X326074Y90072D01*
X326157Y90143D01*
X326175Y90170D01*
X326198Y90193D01*
X326252Y90288D01*
X326312Y90379D01*
X326321Y90410D01*
X326337Y90438D01*
X326362Y90544D01*
X326394Y90649D01*
X326394Y90681D01*
X326402Y90712D01*
X326396Y90822D01*
X326398Y90931D01*
X326389Y90962D01*
X326388Y90994D01*
X326352Y91097D01*
X326323Y91203D01*
X326306Y91230D01*
X326295Y91261D01*
X326242Y91334D01*
X326174Y91443D01*
X326152Y91463D01*
X326148Y91469D01*
X326133Y91483D01*
X326113Y91510D01*
X325254Y92369D01*
X264119Y153504D01*
X264093Y153523D01*
X264072Y153548D01*
X264013Y153587D01*
X263985Y153611D01*
X263958Y153625D01*
X263893Y153673D01*
X263863Y153685D01*
X263836Y153702D01*
X263732Y153734D01*
X263731Y153735D01*
X263629Y153773D01*
X263597Y153775D01*
X263566Y153785D01*
X263457Y153786D01*
X263348Y153795D01*
X263317Y153788D01*
X263284Y153788D01*
X263179Y153759D01*
X263072Y153737D01*
X263044Y153722D01*
X263013Y153713D01*
X262920Y153656D01*
X262823Y153605D01*
X262800Y153582D01*
X262773Y153565D01*
X262699Y153484D01*
X262621Y153408D01*
X262605Y153380D01*
X262584Y153356D01*
X262536Y153257D01*
X262482Y153162D01*
X262475Y153131D01*
X262461Y153102D01*
X262447Y153013D01*
X262442Y152991D01*
X262425Y152937D01*
X262425Y152920D01*
X262417Y152888D01*
X262420Y152839D01*
X262413Y152797D01*
X262413Y98544D01*
X262427Y98449D01*
X262432Y98353D01*
X262446Y98309D01*
X262453Y98264D01*
X262492Y98177D01*
X262524Y98086D01*
X262549Y98052D01*
X262569Y98008D01*
X262652Y97910D01*
X262706Y97837D01*
X265831Y94711D01*
X265908Y94654D01*
X265980Y94589D01*
X266021Y94569D01*
X266057Y94542D01*
X266147Y94508D01*
X266233Y94466D01*
X266275Y94460D01*
X266321Y94443D01*
X266449Y94433D01*
X266538Y94419D01*
X284772Y94419D01*
X286543Y92647D01*
X290954Y88236D01*
X290962Y88231D01*
X290968Y88223D01*
X291074Y88146D01*
X291180Y88067D01*
X291189Y88064D01*
X291196Y88058D01*
X291320Y88014D01*
X291444Y87967D01*
X291453Y87967D01*
X291462Y87964D01*
X291594Y87956D01*
X291725Y87946D01*
X291734Y87948D01*
X291744Y87947D01*
X291819Y87965D01*
X292001Y88003D01*
X292022Y88015D01*
X292043Y88020D01*
X296350Y89804D01*
X301582Y89804D01*
X306415Y87802D01*
X310114Y84103D01*
X311759Y80131D01*
X311775Y80104D01*
X311785Y80073D01*
X311847Y79983D01*
X311902Y79889D01*
X311926Y79867D01*
X311944Y79840D01*
X312029Y79770D01*
X312108Y79696D01*
X312137Y79681D01*
X312162Y79661D01*
X312262Y79617D01*
X312360Y79568D01*
X312391Y79562D01*
X312421Y79549D01*
X312529Y79536D01*
X312637Y79515D01*
X312669Y79519D01*
X312701Y79515D01*
X312809Y79532D01*
G37*
G36*
X385116Y137084D02*
X385116Y137084D01*
X385180Y137083D01*
X385255Y137104D01*
X385331Y137115D01*
X385390Y137141D01*
X385452Y137159D01*
X385518Y137199D01*
X385588Y137231D01*
X385637Y137273D01*
X385692Y137307D01*
X385744Y137364D01*
X385803Y137415D01*
X385838Y137468D01*
X385881Y137516D01*
X385915Y137586D01*
X385957Y137651D01*
X385976Y137712D01*
X386004Y137770D01*
X386015Y137839D01*
X386039Y137920D01*
X386041Y138005D01*
X386051Y138074D01*
X386051Y147799D01*
X387444Y151161D01*
X388305Y152022D01*
X388324Y152048D01*
X388349Y152069D01*
X388409Y152160D01*
X388474Y152247D01*
X388485Y152277D01*
X388503Y152304D01*
X388535Y152409D01*
X388574Y152511D01*
X388576Y152543D01*
X388585Y152574D01*
X388587Y152683D01*
X388595Y152792D01*
X388589Y152824D01*
X388589Y152856D01*
X388560Y152961D01*
X388538Y153068D01*
X388523Y153097D01*
X388514Y153128D01*
X388457Y153221D01*
X388405Y153317D01*
X388383Y153341D01*
X388366Y153368D01*
X388285Y153441D01*
X388209Y153520D01*
X388180Y153535D01*
X388157Y153557D01*
X388058Y153605D01*
X387963Y153659D01*
X387932Y153666D01*
X387903Y153680D01*
X387813Y153694D01*
X387689Y153723D01*
X387640Y153721D01*
X387598Y153728D01*
X333454Y153728D01*
X331683Y155499D01*
X319419Y167763D01*
X319368Y167801D01*
X319323Y167847D01*
X319256Y167885D01*
X319194Y167932D01*
X319134Y167955D01*
X319078Y167986D01*
X319002Y168004D01*
X318930Y168031D01*
X318866Y168036D01*
X318803Y168051D01*
X318726Y168047D01*
X318649Y168053D01*
X318586Y168040D01*
X318522Y168037D01*
X318448Y168011D01*
X318373Y167996D01*
X318316Y167965D01*
X318255Y167944D01*
X318198Y167903D01*
X318124Y167863D01*
X318063Y167804D01*
X318006Y167763D01*
X317966Y167723D01*
X316016Y166915D01*
X313904Y166915D01*
X311954Y167723D01*
X310402Y169274D01*
X310374Y169322D01*
X310367Y169329D01*
X310362Y169337D01*
X310264Y169425D01*
X310168Y169515D01*
X310160Y169520D01*
X310153Y169526D01*
X310034Y169584D01*
X309917Y169643D01*
X309907Y169645D01*
X309899Y169649D01*
X309822Y169661D01*
X309639Y169696D01*
X309616Y169693D01*
X309594Y169697D01*
X278693Y169697D01*
X278661Y169692D01*
X278629Y169695D01*
X278522Y169672D01*
X278414Y169657D01*
X278384Y169643D01*
X278353Y169637D01*
X278256Y169586D01*
X278157Y169541D01*
X278132Y169520D01*
X278104Y169504D01*
X278025Y169428D01*
X277942Y169357D01*
X277925Y169330D01*
X277902Y169308D01*
X277848Y169213D01*
X277788Y169121D01*
X277779Y169090D01*
X277763Y169062D01*
X277737Y168956D01*
X277706Y168851D01*
X277705Y168819D01*
X277698Y168788D01*
X277703Y168678D01*
X277702Y168569D01*
X277710Y168538D01*
X277712Y168506D01*
X277748Y168403D01*
X277777Y168298D01*
X277794Y168270D01*
X277805Y168240D01*
X277858Y168167D01*
X277925Y168058D01*
X277961Y168025D01*
X277986Y167991D01*
X300041Y145936D01*
X300048Y145931D01*
X300054Y145923D01*
X300161Y145846D01*
X300266Y145767D01*
X300275Y145764D01*
X300283Y145758D01*
X300406Y145714D01*
X300530Y145668D01*
X300540Y145667D01*
X300549Y145664D01*
X300680Y145656D01*
X300811Y145646D01*
X300821Y145648D01*
X300830Y145647D01*
X300905Y145665D01*
X301087Y145703D01*
X301109Y145715D01*
X301130Y145720D01*
X302474Y146277D01*
X304586Y146277D01*
X306536Y145469D01*
X308029Y143976D01*
X308837Y142026D01*
X308837Y139914D01*
X308233Y138457D01*
X308204Y138342D01*
X308169Y138229D01*
X308169Y138206D01*
X308163Y138184D01*
X308167Y138065D01*
X308165Y137947D01*
X308171Y137925D01*
X308172Y137902D01*
X308209Y137789D01*
X308240Y137675D01*
X308252Y137655D01*
X308259Y137634D01*
X308326Y137536D01*
X308388Y137435D01*
X308405Y137420D01*
X308418Y137401D01*
X308510Y137325D01*
X308598Y137246D01*
X308618Y137236D01*
X308636Y137221D01*
X308745Y137174D01*
X308852Y137123D01*
X308873Y137119D01*
X308895Y137110D01*
X309080Y137087D01*
X309156Y137075D01*
X385052Y137075D01*
X385116Y137084D01*
G37*
G36*
X147201Y79532D02*
X147201Y79532D01*
X147309Y79543D01*
X147339Y79554D01*
X147371Y79560D01*
X147470Y79607D01*
X147571Y79647D01*
X147597Y79667D01*
X147626Y79681D01*
X147708Y79753D01*
X147794Y79821D01*
X147813Y79847D01*
X147837Y79868D01*
X147884Y79945D01*
X147959Y80049D01*
X147975Y80095D01*
X147997Y80131D01*
X149642Y84103D01*
X153341Y87802D01*
X158174Y89804D01*
X163406Y89804D01*
X168239Y87802D01*
X171014Y85026D01*
X171066Y84988D01*
X171111Y84941D01*
X171178Y84903D01*
X171240Y84857D01*
X171300Y84834D01*
X171356Y84802D01*
X171431Y84785D01*
X171504Y84757D01*
X171568Y84752D01*
X171630Y84738D01*
X171708Y84741D01*
X171785Y84735D01*
X171848Y84749D01*
X171912Y84752D01*
X171985Y84777D01*
X172061Y84793D01*
X172118Y84823D01*
X172179Y84844D01*
X172235Y84886D01*
X172310Y84926D01*
X172371Y84985D01*
X172428Y85026D01*
X182135Y94733D01*
X182192Y94810D01*
X182257Y94881D01*
X182277Y94922D01*
X182304Y94959D01*
X182338Y95049D01*
X182380Y95135D01*
X182386Y95177D01*
X182403Y95223D01*
X182413Y95350D01*
X182427Y95440D01*
X182427Y142920D01*
X184199Y144692D01*
X198687Y159180D01*
X198725Y159231D01*
X198771Y159276D01*
X198810Y159343D01*
X198856Y159405D01*
X198879Y159465D01*
X198910Y159521D01*
X198928Y159597D01*
X198956Y159669D01*
X198961Y159733D01*
X198975Y159796D01*
X198971Y159873D01*
X198977Y159950D01*
X198964Y160013D01*
X198961Y160077D01*
X198936Y160151D01*
X198920Y160226D01*
X198890Y160283D01*
X198868Y160344D01*
X198827Y160400D01*
X198787Y160475D01*
X198728Y160536D01*
X198687Y160593D01*
X195843Y163436D01*
X192308Y166972D01*
X191210Y168069D01*
X191184Y168089D01*
X191163Y168113D01*
X191072Y168173D01*
X190985Y168239D01*
X190954Y168250D01*
X190927Y168268D01*
X190823Y168300D01*
X190721Y168338D01*
X190688Y168341D01*
X190658Y168350D01*
X190548Y168352D01*
X190439Y168360D01*
X190408Y168353D01*
X190376Y168354D01*
X190270Y168325D01*
X190163Y168302D01*
X190135Y168287D01*
X190104Y168279D01*
X190011Y168221D01*
X189914Y168170D01*
X189891Y168147D01*
X189864Y168131D01*
X189791Y168050D01*
X189712Y167973D01*
X189696Y167945D01*
X189675Y167921D01*
X189627Y167823D01*
X189573Y167728D01*
X189566Y167696D01*
X189552Y167667D01*
X189538Y167578D01*
X189508Y167453D01*
X189511Y167405D01*
X189504Y167363D01*
X189504Y166454D01*
X188149Y165099D01*
X188092Y165023D01*
X188027Y164951D01*
X188007Y164910D01*
X187980Y164874D01*
X187946Y164784D01*
X187904Y164697D01*
X187898Y164655D01*
X187892Y164639D01*
X187049Y162604D01*
X185556Y161112D01*
X183606Y160304D01*
X181494Y160304D01*
X179544Y161112D01*
X178051Y162604D01*
X177409Y164154D01*
X177365Y164229D01*
X177329Y164308D01*
X177294Y164350D01*
X177266Y164397D01*
X177202Y164456D01*
X177146Y164522D01*
X177100Y164553D01*
X177060Y164590D01*
X176983Y164629D01*
X176910Y164677D01*
X176857Y164693D01*
X176808Y164718D01*
X176723Y164734D01*
X176640Y164759D01*
X176585Y164760D01*
X176531Y164770D01*
X176445Y164762D01*
X176358Y164763D01*
X176305Y164748D01*
X176251Y164743D01*
X176170Y164711D01*
X176086Y164688D01*
X176039Y164659D01*
X175989Y164639D01*
X175920Y164585D01*
X175846Y164540D01*
X175810Y164499D01*
X175766Y164465D01*
X175715Y164395D01*
X175657Y164330D01*
X175633Y164281D01*
X175601Y164236D01*
X175572Y164155D01*
X175534Y164077D01*
X175526Y164026D01*
X175507Y163971D01*
X175500Y163857D01*
X175487Y163772D01*
X175487Y162774D01*
X174679Y160824D01*
X173186Y159331D01*
X171236Y158523D01*
X169124Y158523D01*
X167174Y159331D01*
X165681Y160824D01*
X164873Y162774D01*
X164873Y164988D01*
X164874Y164990D01*
X164873Y165004D01*
X164873Y165084D01*
X164870Y165107D01*
X164870Y165109D01*
X164872Y165228D01*
X164866Y165250D01*
X164865Y165272D01*
X164828Y165385D01*
X164796Y165500D01*
X164785Y165519D01*
X164778Y165540D01*
X164711Y165638D01*
X164648Y165740D01*
X164632Y165755D01*
X164619Y165773D01*
X164527Y165849D01*
X164439Y165929D01*
X164419Y165939D01*
X164401Y165953D01*
X164292Y166000D01*
X164185Y166052D01*
X164164Y166055D01*
X164142Y166064D01*
X163955Y166088D01*
X163881Y166099D01*
X162971Y166099D01*
X161386Y166756D01*
X161272Y166785D01*
X161158Y166820D01*
X161135Y166820D01*
X161113Y166826D01*
X160995Y166822D01*
X160876Y166823D01*
X160854Y166817D01*
X160831Y166817D01*
X160719Y166780D01*
X160604Y166748D01*
X160585Y166736D01*
X160563Y166729D01*
X160465Y166662D01*
X160364Y166600D01*
X160349Y166583D01*
X160330Y166570D01*
X160255Y166479D01*
X160175Y166391D01*
X160165Y166370D01*
X160151Y166353D01*
X160104Y166243D01*
X160052Y166137D01*
X160049Y166116D01*
X160039Y166094D01*
X160020Y165939D01*
X160017Y165927D01*
X160016Y165907D01*
X160005Y165832D01*
X160005Y103094D01*
X147597Y90687D01*
X145826Y88915D01*
X142106Y88915D01*
X142074Y88911D01*
X142042Y88913D01*
X141935Y88891D01*
X141826Y88875D01*
X141797Y88862D01*
X141765Y88856D01*
X141669Y88804D01*
X141569Y88759D01*
X141545Y88738D01*
X141517Y88723D01*
X141438Y88647D01*
X141355Y88576D01*
X141338Y88549D01*
X141314Y88526D01*
X141261Y88431D01*
X141201Y88340D01*
X141191Y88309D01*
X141175Y88281D01*
X141150Y88175D01*
X141118Y88070D01*
X141118Y88038D01*
X141110Y88007D01*
X141116Y87897D01*
X141115Y87788D01*
X141123Y87757D01*
X141125Y87725D01*
X141161Y87622D01*
X141190Y87516D01*
X141207Y87489D01*
X141217Y87458D01*
X141271Y87385D01*
X141338Y87276D01*
X141374Y87244D01*
X141399Y87209D01*
X144506Y84103D01*
X146151Y80131D01*
X146167Y80104D01*
X146177Y80073D01*
X146239Y79983D01*
X146294Y79889D01*
X146318Y79866D01*
X146336Y79840D01*
X146421Y79770D01*
X146500Y79696D01*
X146529Y79681D01*
X146554Y79661D01*
X146654Y79617D01*
X146752Y79568D01*
X146783Y79562D01*
X146813Y79549D01*
X146921Y79536D01*
X147029Y79515D01*
X147061Y79519D01*
X147093Y79515D01*
X147201Y79532D01*
G37*
G36*
X392165Y158782D02*
X392165Y158782D01*
X392197Y158779D01*
X392304Y158801D01*
X392412Y158817D01*
X392442Y158830D01*
X392473Y158837D01*
X392570Y158888D01*
X392669Y158933D01*
X392694Y158954D01*
X392722Y158969D01*
X392801Y159045D01*
X392884Y159116D01*
X392901Y159143D01*
X392924Y159166D01*
X392978Y159261D01*
X393038Y159352D01*
X393048Y159383D01*
X393063Y159411D01*
X393089Y159518D01*
X393121Y159622D01*
X393121Y159654D01*
X393128Y159686D01*
X393123Y159795D01*
X393124Y159904D01*
X393116Y159935D01*
X393114Y159967D01*
X393078Y160070D01*
X393049Y160176D01*
X393032Y160203D01*
X393022Y160234D01*
X392968Y160307D01*
X392901Y160416D01*
X392900Y160417D01*
X392865Y160449D01*
X392840Y160483D01*
X392276Y161047D01*
X391336Y162341D01*
X390610Y163766D01*
X390115Y165287D01*
X390055Y165667D01*
X406646Y165667D01*
X406709Y165676D01*
X406774Y165675D01*
X406848Y165696D01*
X406925Y165707D01*
X406983Y165733D01*
X407045Y165750D01*
X407111Y165791D01*
X407182Y165823D01*
X407231Y165865D01*
X407285Y165899D01*
X407337Y165956D01*
X407396Y166007D01*
X407431Y166060D01*
X407474Y166108D01*
X407508Y166178D01*
X407551Y166242D01*
X407569Y166304D01*
X407597Y166362D01*
X407608Y166431D01*
X407633Y166512D01*
X407634Y166597D01*
X407645Y166666D01*
X407645Y168666D01*
X407636Y168730D01*
X407637Y168794D01*
X407616Y168869D01*
X407605Y168945D01*
X407579Y169004D01*
X407562Y169066D01*
X407521Y169132D01*
X407489Y169202D01*
X407447Y169251D01*
X407413Y169306D01*
X407356Y169358D01*
X407305Y169417D01*
X407252Y169452D01*
X407204Y169495D01*
X407134Y169529D01*
X407070Y169571D01*
X407008Y169590D01*
X406950Y169618D01*
X406881Y169629D01*
X406800Y169654D01*
X406715Y169655D01*
X406646Y169666D01*
X390055Y169666D01*
X390115Y170046D01*
X390610Y171567D01*
X391336Y172992D01*
X392276Y174286D01*
X393406Y175416D01*
X393713Y175639D01*
X393793Y175716D01*
X393877Y175788D01*
X393894Y175814D01*
X393916Y175836D01*
X393970Y175931D01*
X394031Y176024D01*
X394040Y176054D01*
X394055Y176081D01*
X394081Y176188D01*
X394113Y176294D01*
X394114Y176325D01*
X394121Y176355D01*
X394116Y176465D01*
X394117Y176576D01*
X394109Y176606D01*
X394107Y176637D01*
X394071Y176741D01*
X394042Y176848D01*
X394026Y176874D01*
X394015Y176903D01*
X393952Y176993D01*
X393894Y177087D01*
X393871Y177108D01*
X393853Y177134D01*
X393766Y177203D01*
X393684Y177277D01*
X393656Y177290D01*
X393632Y177309D01*
X393530Y177351D01*
X393431Y177400D01*
X393402Y177404D01*
X393371Y177417D01*
X393215Y177433D01*
X393126Y177447D01*
X319651Y177447D01*
X319620Y177443D01*
X319587Y177445D01*
X319480Y177423D01*
X319372Y177407D01*
X319343Y177394D01*
X319311Y177387D01*
X319215Y177336D01*
X319115Y177291D01*
X319091Y177270D01*
X319062Y177255D01*
X318984Y177179D01*
X318901Y177108D01*
X318883Y177081D01*
X318860Y177058D01*
X318807Y176963D01*
X318747Y176872D01*
X318737Y176841D01*
X318721Y176813D01*
X318696Y176706D01*
X318664Y176602D01*
X318664Y176570D01*
X318656Y176538D01*
X318662Y176429D01*
X318660Y176320D01*
X318669Y176289D01*
X318671Y176257D01*
X318706Y176154D01*
X318736Y176048D01*
X318753Y176021D01*
X318763Y175990D01*
X318816Y175917D01*
X318884Y175808D01*
X318920Y175776D01*
X318945Y175741D01*
X319459Y175227D01*
X319640Y174791D01*
X319661Y174755D01*
X319674Y174716D01*
X319725Y174646D01*
X319783Y174548D01*
X319826Y174508D01*
X319856Y174467D01*
X321348Y172974D01*
X321349Y172974D01*
X335253Y159070D01*
X335330Y159012D01*
X335401Y158948D01*
X335442Y158928D01*
X335479Y158900D01*
X335569Y158866D01*
X335655Y158825D01*
X335697Y158818D01*
X335743Y158801D01*
X335870Y158791D01*
X335960Y158777D01*
X392133Y158777D01*
X392165Y158782D01*
G37*
G36*
X175824Y48216D02*
X175824Y48216D01*
X175888Y48215D01*
X175963Y48236D01*
X176039Y48247D01*
X176098Y48273D01*
X176160Y48290D01*
X176226Y48331D01*
X176296Y48363D01*
X176345Y48405D01*
X176400Y48438D01*
X176452Y48496D01*
X176510Y48546D01*
X176546Y48600D01*
X176589Y48648D01*
X176622Y48717D01*
X176665Y48782D01*
X176684Y48844D01*
X176712Y48902D01*
X176722Y48971D01*
X176747Y49052D01*
X176748Y49137D01*
X176759Y49206D01*
X176759Y62232D01*
X178077Y62023D01*
X180198Y61334D01*
X182185Y60322D01*
X183988Y59011D01*
X185565Y57434D01*
X186876Y55631D01*
X187888Y53644D01*
X188072Y53076D01*
X188104Y53012D01*
X188126Y52944D01*
X188165Y52886D01*
X188196Y52823D01*
X188245Y52770D01*
X188285Y52711D01*
X188339Y52667D01*
X188386Y52615D01*
X188447Y52577D01*
X188502Y52532D01*
X188567Y52504D01*
X188627Y52468D01*
X188696Y52449D01*
X188761Y52421D01*
X188831Y52412D01*
X188899Y52394D01*
X188971Y52395D01*
X189041Y52386D01*
X189111Y52397D01*
X189181Y52399D01*
X189249Y52420D01*
X189320Y52431D01*
X189383Y52461D01*
X189450Y52482D01*
X189510Y52522D01*
X189575Y52552D01*
X189627Y52599D01*
X189686Y52638D01*
X189732Y52692D01*
X189785Y52740D01*
X189819Y52795D01*
X189868Y52853D01*
X189906Y52938D01*
X189946Y53003D01*
X191044Y55655D01*
X194743Y59354D01*
X199576Y61356D01*
X204808Y61356D01*
X207799Y60117D01*
X207808Y60114D01*
X207816Y60110D01*
X207945Y60079D01*
X208072Y60047D01*
X208081Y60047D01*
X208091Y60045D01*
X208223Y60052D01*
X208354Y60056D01*
X208363Y60059D01*
X208372Y60059D01*
X208497Y60102D01*
X208622Y60143D01*
X208630Y60149D01*
X208639Y60152D01*
X208701Y60197D01*
X208855Y60302D01*
X208870Y60321D01*
X208888Y60333D01*
X211437Y62883D01*
X211508Y62977D01*
X211584Y63069D01*
X211593Y63090D01*
X211606Y63108D01*
X211648Y63219D01*
X211695Y63328D01*
X211698Y63351D01*
X211706Y63372D01*
X211715Y63490D01*
X211729Y63608D01*
X211726Y63630D01*
X211728Y63653D01*
X211703Y63769D01*
X211684Y63886D01*
X211675Y63907D01*
X211670Y63929D01*
X211614Y64034D01*
X211563Y64141D01*
X211548Y64158D01*
X211538Y64178D01*
X211455Y64263D01*
X211376Y64352D01*
X211358Y64363D01*
X211341Y64380D01*
X211178Y64472D01*
X211113Y64512D01*
X208713Y65506D01*
X205014Y69205D01*
X203242Y73483D01*
X203226Y73511D01*
X203216Y73542D01*
X203154Y73632D01*
X203099Y73726D01*
X203075Y73748D01*
X203057Y73775D01*
X202973Y73844D01*
X202893Y73919D01*
X202864Y73934D01*
X202839Y73954D01*
X202739Y73997D01*
X202641Y74047D01*
X202610Y74053D01*
X202580Y74065D01*
X202472Y74079D01*
X202364Y74099D01*
X202332Y74096D01*
X202300Y74100D01*
X202192Y74083D01*
X202084Y74072D01*
X202054Y74060D01*
X202022Y74055D01*
X201923Y74008D01*
X201822Y73968D01*
X201796Y73948D01*
X201767Y73934D01*
X201685Y73861D01*
X201599Y73794D01*
X201580Y73768D01*
X201556Y73747D01*
X201509Y73669D01*
X201434Y73565D01*
X201418Y73520D01*
X201396Y73483D01*
X199624Y69205D01*
X195925Y65506D01*
X191092Y63504D01*
X185860Y63504D01*
X181027Y65506D01*
X177328Y69205D01*
X175556Y73483D01*
X175540Y73511D01*
X175530Y73542D01*
X175468Y73632D01*
X175413Y73726D01*
X175389Y73748D01*
X175371Y73775D01*
X175287Y73844D01*
X175207Y73919D01*
X175178Y73934D01*
X175153Y73954D01*
X175053Y73997D01*
X174955Y74047D01*
X174924Y74053D01*
X174894Y74065D01*
X174786Y74079D01*
X174678Y74099D01*
X174646Y74096D01*
X174614Y74100D01*
X174506Y74083D01*
X174398Y74072D01*
X174368Y74060D01*
X174336Y74055D01*
X174237Y74008D01*
X174136Y73968D01*
X174110Y73948D01*
X174081Y73934D01*
X173999Y73861D01*
X173913Y73794D01*
X173894Y73768D01*
X173870Y73747D01*
X173823Y73669D01*
X173748Y73565D01*
X173732Y73520D01*
X173710Y73483D01*
X171938Y69205D01*
X168239Y65506D01*
X163406Y63504D01*
X158174Y63504D01*
X153341Y65506D01*
X149642Y69205D01*
X147997Y73177D01*
X147981Y73204D01*
X147971Y73235D01*
X147909Y73326D01*
X147854Y73419D01*
X147830Y73442D01*
X147812Y73468D01*
X147728Y73538D01*
X147648Y73612D01*
X147619Y73627D01*
X147594Y73647D01*
X147494Y73691D01*
X147396Y73740D01*
X147365Y73746D01*
X147335Y73759D01*
X147227Y73772D01*
X147119Y73793D01*
X147087Y73789D01*
X147055Y73793D01*
X146947Y73776D01*
X146839Y73765D01*
X146809Y73754D01*
X146777Y73748D01*
X146678Y73701D01*
X146577Y73661D01*
X146551Y73641D01*
X146522Y73627D01*
X146440Y73555D01*
X146354Y73488D01*
X146335Y73461D01*
X146311Y73440D01*
X146264Y73363D01*
X146189Y73259D01*
X146173Y73213D01*
X146151Y73177D01*
X144506Y69205D01*
X140807Y65506D01*
X135974Y63504D01*
X130742Y63504D01*
X126385Y65309D01*
X126376Y65311D01*
X126368Y65316D01*
X126239Y65347D01*
X126112Y65379D01*
X126103Y65379D01*
X126093Y65381D01*
X125961Y65374D01*
X125830Y65370D01*
X125821Y65367D01*
X125812Y65367D01*
X125688Y65324D01*
X125562Y65283D01*
X125554Y65277D01*
X125545Y65274D01*
X125483Y65229D01*
X125329Y65124D01*
X125314Y65105D01*
X125296Y65092D01*
X123497Y63293D01*
X123487Y63280D01*
X123474Y63269D01*
X123403Y63167D01*
X123328Y63068D01*
X123322Y63052D01*
X123312Y63038D01*
X123272Y62920D01*
X123228Y62804D01*
X123227Y62787D01*
X123222Y62771D01*
X123216Y62647D01*
X123206Y62523D01*
X123210Y62506D01*
X123209Y62490D01*
X123239Y62368D01*
X123264Y62247D01*
X123272Y62232D01*
X123276Y62216D01*
X123338Y62107D01*
X123397Y61998D01*
X123408Y61986D01*
X123417Y61971D01*
X123507Y61885D01*
X123593Y61796D01*
X123608Y61787D01*
X123620Y61776D01*
X123699Y61736D01*
X123839Y61656D01*
X123870Y61649D01*
X123895Y61636D01*
X124826Y61334D01*
X126813Y60322D01*
X128616Y59011D01*
X130193Y57434D01*
X131504Y55631D01*
X132516Y53644D01*
X132812Y52733D01*
X132843Y52669D01*
X132865Y52601D01*
X132905Y52543D01*
X132936Y52480D01*
X132984Y52427D01*
X133024Y52368D01*
X133079Y52323D01*
X133126Y52271D01*
X133187Y52234D01*
X133242Y52188D01*
X133307Y52161D01*
X133367Y52124D01*
X133436Y52105D01*
X133501Y52077D01*
X133571Y52068D01*
X133639Y52050D01*
X133710Y52051D01*
X133781Y52043D01*
X133850Y52054D01*
X133921Y52055D01*
X133989Y52076D01*
X134059Y52088D01*
X134123Y52118D01*
X134190Y52139D01*
X134250Y52178D01*
X134314Y52209D01*
X134367Y52255D01*
X134425Y52294D01*
X134472Y52349D01*
X134525Y52396D01*
X134558Y52451D01*
X134608Y52509D01*
X134646Y52595D01*
X134685Y52659D01*
X135926Y55655D01*
X139625Y59354D01*
X144458Y61356D01*
X149690Y61356D01*
X154523Y59354D01*
X158222Y55655D01*
X159463Y52659D01*
X159499Y52598D01*
X159526Y52532D01*
X159570Y52477D01*
X159606Y52416D01*
X159658Y52368D01*
X159703Y52312D01*
X159761Y52272D01*
X159812Y52224D01*
X159876Y52191D01*
X159934Y52150D01*
X160001Y52128D01*
X160063Y52096D01*
X160134Y52082D01*
X160201Y52060D01*
X160271Y52056D01*
X160340Y52043D01*
X160411Y52050D01*
X160483Y52047D01*
X160551Y52064D01*
X160621Y52070D01*
X160687Y52097D01*
X160757Y52114D01*
X160818Y52149D01*
X160883Y52175D01*
X160939Y52219D01*
X161001Y52254D01*
X161050Y52305D01*
X161105Y52348D01*
X161147Y52406D01*
X161197Y52458D01*
X161226Y52515D01*
X161271Y52577D01*
X161302Y52665D01*
X161336Y52733D01*
X161632Y53644D01*
X162644Y55631D01*
X163955Y57434D01*
X165532Y59011D01*
X167335Y60322D01*
X169322Y61334D01*
X171443Y62023D01*
X172761Y62232D01*
X172761Y49206D01*
X172770Y49143D01*
X172769Y49078D01*
X172790Y49004D01*
X172801Y48927D01*
X172827Y48868D01*
X172844Y48806D01*
X172885Y48740D01*
X172917Y48670D01*
X172959Y48621D01*
X172992Y48566D01*
X173050Y48515D01*
X173100Y48456D01*
X173154Y48420D01*
X173202Y48377D01*
X173271Y48344D01*
X173336Y48301D01*
X173398Y48282D01*
X173455Y48254D01*
X173525Y48244D01*
X173606Y48219D01*
X173691Y48218D01*
X173760Y48207D01*
X175760Y48207D01*
X175824Y48216D01*
G37*
G36*
X153149Y184425D02*
X153149Y184425D01*
X153258Y184423D01*
X153289Y184432D01*
X153321Y184434D01*
X153424Y184469D01*
X153530Y184499D01*
X153557Y184516D01*
X153588Y184526D01*
X153661Y184579D01*
X153770Y184647D01*
X153802Y184683D01*
X153837Y184708D01*
X176555Y207427D01*
X178793Y207427D01*
X178824Y207431D01*
X178857Y207429D01*
X178964Y207451D01*
X179072Y207466D01*
X179101Y207480D01*
X179133Y207486D01*
X179229Y207537D01*
X179329Y207583D01*
X179353Y207604D01*
X179382Y207619D01*
X179460Y207695D01*
X179543Y207766D01*
X179561Y207793D01*
X179584Y207815D01*
X179638Y207910D01*
X179697Y208002D01*
X179707Y208033D01*
X179723Y208061D01*
X179748Y208167D01*
X179780Y208272D01*
X179780Y208304D01*
X179788Y208335D01*
X179782Y208445D01*
X179784Y208554D01*
X179775Y208585D01*
X179773Y208617D01*
X179738Y208720D01*
X179708Y208825D01*
X179691Y208853D01*
X179681Y208883D01*
X179628Y208956D01*
X179560Y209065D01*
X179524Y209098D01*
X179499Y209132D01*
X171387Y217244D01*
X171387Y218508D01*
X174630Y221750D01*
X174630Y221751D01*
X178230Y225350D01*
X179619Y226739D01*
X179690Y226834D01*
X179765Y226926D01*
X179774Y226947D01*
X179788Y226965D01*
X179830Y227076D01*
X179877Y227185D01*
X179880Y227207D01*
X179888Y227229D01*
X179897Y227347D01*
X179911Y227465D01*
X179908Y227487D01*
X179909Y227510D01*
X179885Y227626D01*
X179866Y227743D01*
X179856Y227764D01*
X179852Y227786D01*
X179796Y227891D01*
X179745Y227998D01*
X179730Y228015D01*
X179719Y228035D01*
X179636Y228120D01*
X179558Y228209D01*
X179539Y228220D01*
X179523Y228237D01*
X179360Y228329D01*
X179295Y228369D01*
X177334Y229181D01*
X175841Y230674D01*
X175033Y232624D01*
X175033Y232647D01*
X175029Y232679D01*
X175031Y232711D01*
X175009Y232818D01*
X174993Y232926D01*
X174980Y232955D01*
X174974Y232987D01*
X174922Y233083D01*
X174877Y233183D01*
X174856Y233207D01*
X174841Y233236D01*
X174765Y233314D01*
X174694Y233397D01*
X174667Y233415D01*
X174644Y233438D01*
X174549Y233492D01*
X174458Y233552D01*
X174427Y233561D01*
X174399Y233577D01*
X174292Y233602D01*
X174188Y233634D01*
X174156Y233634D01*
X174125Y233642D01*
X174015Y233636D01*
X173906Y233638D01*
X173875Y233629D01*
X173843Y233627D01*
X173740Y233592D01*
X173634Y233562D01*
X173607Y233545D01*
X173576Y233535D01*
X173503Y233482D01*
X173394Y233414D01*
X173362Y233378D01*
X173327Y233353D01*
X152423Y212449D01*
X152396Y212412D01*
X152380Y212398D01*
X152354Y212359D01*
X152301Y212301D01*
X152281Y212260D01*
X152254Y212224D01*
X152239Y212184D01*
X152225Y212162D01*
X152210Y212112D01*
X152178Y212047D01*
X152172Y212005D01*
X152155Y211960D01*
X152152Y211922D01*
X152143Y211893D01*
X152142Y211812D01*
X152131Y211743D01*
X152131Y185414D01*
X152135Y185382D01*
X152133Y185350D01*
X152155Y185243D01*
X152171Y185135D01*
X152184Y185106D01*
X152190Y185074D01*
X152242Y184978D01*
X152287Y184878D01*
X152308Y184854D01*
X152323Y184825D01*
X152399Y184747D01*
X152470Y184664D01*
X152497Y184646D01*
X152520Y184623D01*
X152615Y184569D01*
X152706Y184510D01*
X152737Y184500D01*
X152765Y184484D01*
X152872Y184459D01*
X152976Y184427D01*
X153008Y184427D01*
X153039Y184419D01*
X153149Y184425D01*
G37*
G36*
X153149Y230784D02*
X153149Y230784D01*
X153258Y230783D01*
X153289Y230791D01*
X153321Y230793D01*
X153424Y230829D01*
X153530Y230858D01*
X153557Y230875D01*
X153588Y230885D01*
X153661Y230939D01*
X153770Y231006D01*
X153802Y231042D01*
X153837Y231067D01*
X172253Y249483D01*
X172272Y249509D01*
X172297Y249530D01*
X172357Y249622D01*
X172422Y249709D01*
X172434Y249739D01*
X172451Y249766D01*
X172483Y249871D01*
X172522Y249973D01*
X172524Y250005D01*
X172534Y250036D01*
X172535Y250145D01*
X172544Y250254D01*
X172537Y250286D01*
X172537Y250318D01*
X172508Y250423D01*
X172486Y250530D01*
X172471Y250559D01*
X172462Y250590D01*
X172405Y250683D01*
X172353Y250779D01*
X172331Y250802D01*
X172314Y250830D01*
X172233Y250903D01*
X172157Y250981D01*
X172129Y250997D01*
X172105Y251019D01*
X172006Y251066D01*
X171911Y251120D01*
X171880Y251128D01*
X171851Y251142D01*
X171762Y251156D01*
X171637Y251185D01*
X171588Y251183D01*
X171546Y251189D01*
X96424Y251189D01*
X96329Y251176D01*
X96233Y251171D01*
X96189Y251156D01*
X96144Y251149D01*
X96057Y251110D01*
X95966Y251078D01*
X95932Y251053D01*
X95888Y251033D01*
X95790Y250950D01*
X95717Y250897D01*
X89325Y244505D01*
X89306Y244479D01*
X89281Y244458D01*
X89221Y244366D01*
X89156Y244279D01*
X89144Y244249D01*
X89127Y244222D01*
X89095Y244117D01*
X89056Y244015D01*
X89054Y243983D01*
X89044Y243952D01*
X89043Y243843D01*
X89034Y243734D01*
X89041Y243702D01*
X89041Y243670D01*
X89070Y243565D01*
X89092Y243458D01*
X89107Y243429D01*
X89116Y243398D01*
X89173Y243305D01*
X89225Y243209D01*
X89247Y243186D01*
X89264Y243158D01*
X89345Y243085D01*
X89421Y243007D01*
X89449Y242991D01*
X89473Y242969D01*
X89572Y242922D01*
X89667Y242868D01*
X89698Y242860D01*
X89727Y242846D01*
X89816Y242832D01*
X89941Y242803D01*
X89990Y242805D01*
X90032Y242799D01*
X92912Y242799D01*
X92912Y233758D01*
X92921Y233695D01*
X92921Y233630D01*
X92941Y233556D01*
X92952Y233479D01*
X92979Y233420D01*
X92996Y233358D01*
X93037Y233292D01*
X93068Y233222D01*
X93110Y233173D01*
X93144Y233118D01*
X93201Y233067D01*
X93252Y233008D01*
X93306Y232972D01*
X93353Y232929D01*
X93423Y232896D01*
X93488Y232853D01*
X93549Y232834D01*
X93607Y232806D01*
X93676Y232796D01*
X93758Y232771D01*
X93842Y232770D01*
X93912Y232759D01*
X95912Y232759D01*
X95975Y232768D01*
X96039Y232767D01*
X96114Y232788D01*
X96191Y232799D01*
X96249Y232825D01*
X96311Y232842D01*
X96377Y232883D01*
X96448Y232915D01*
X96496Y232957D01*
X96551Y232990D01*
X96603Y233048D01*
X96662Y233098D01*
X96697Y233152D01*
X96740Y233200D01*
X96774Y233269D01*
X96816Y233334D01*
X96835Y233396D01*
X96863Y233454D01*
X96874Y233523D01*
X96899Y233604D01*
X96900Y233689D01*
X96911Y233758D01*
X96911Y242799D01*
X98330Y242799D01*
X98394Y242808D01*
X98458Y242807D01*
X98533Y242828D01*
X98609Y242839D01*
X98668Y242865D01*
X98730Y242882D01*
X98796Y242923D01*
X98866Y242955D01*
X98915Y242997D01*
X98970Y243030D01*
X99022Y243088D01*
X99080Y243138D01*
X99116Y243192D01*
X99159Y243240D01*
X99192Y243309D01*
X99235Y243374D01*
X99254Y243436D01*
X99282Y243493D01*
X99293Y243563D01*
X99317Y243644D01*
X99318Y243729D01*
X99329Y243798D01*
X99329Y244255D01*
X99915Y244841D01*
X151545Y244841D01*
X152131Y244255D01*
X152131Y231774D01*
X152135Y231742D01*
X152133Y231710D01*
X152155Y231603D01*
X152171Y231494D01*
X152184Y231465D01*
X152190Y231433D01*
X152242Y231337D01*
X152287Y231237D01*
X152308Y231213D01*
X152323Y231185D01*
X152399Y231106D01*
X152470Y231023D01*
X152497Y231006D01*
X152520Y230982D01*
X152615Y230929D01*
X152706Y230869D01*
X152737Y230859D01*
X152765Y230843D01*
X152872Y230818D01*
X152976Y230786D01*
X153008Y230786D01*
X153039Y230778D01*
X153149Y230784D01*
G37*
%LPC*%
G36*
X75310Y311301D02*
X75310Y311301D01*
X75310Y312302D01*
X75301Y312366D01*
X75302Y312430D01*
X75281Y312505D01*
X75270Y312581D01*
X75244Y312640D01*
X75227Y312702D01*
X75186Y312768D01*
X75154Y312838D01*
X75112Y312887D01*
X75079Y312942D01*
X75021Y312994D01*
X74971Y313052D01*
X74917Y313088D01*
X74869Y313131D01*
X74800Y313164D01*
X74735Y313207D01*
X74673Y313226D01*
X74615Y313254D01*
X74546Y313264D01*
X74465Y313289D01*
X74380Y313290D01*
X74311Y313301D01*
X65270Y313301D01*
X65270Y318137D01*
X65443Y318783D01*
X65778Y319362D01*
X66251Y319835D01*
X66830Y320170D01*
X67365Y320313D01*
X67375Y320317D01*
X67386Y320319D01*
X67504Y320372D01*
X67624Y320424D01*
X67633Y320430D01*
X67642Y320435D01*
X67741Y320519D01*
X67842Y320602D01*
X67849Y320611D01*
X67857Y320618D01*
X67928Y320727D01*
X68002Y320835D01*
X68005Y320845D01*
X68011Y320854D01*
X68049Y320979D01*
X68090Y321103D01*
X68090Y321114D01*
X68094Y321124D01*
X68095Y321255D01*
X68100Y321385D01*
X68097Y321395D01*
X68097Y321406D01*
X68062Y321532D01*
X68031Y321658D01*
X68025Y321667D01*
X68022Y321678D01*
X67954Y321789D01*
X67888Y321901D01*
X67880Y321908D01*
X67874Y321918D01*
X67777Y322005D01*
X67682Y322095D01*
X67673Y322099D01*
X67665Y322107D01*
X67548Y322163D01*
X67431Y322223D01*
X67421Y322225D01*
X67411Y322230D01*
X67332Y322242D01*
X67187Y322270D01*
X66286Y323170D01*
X66286Y337434D01*
X67179Y338327D01*
X70628Y338327D01*
X70692Y338336D01*
X70756Y338335D01*
X70831Y338356D01*
X70907Y338367D01*
X70966Y338393D01*
X71028Y338410D01*
X71094Y338451D01*
X71164Y338483D01*
X71213Y338525D01*
X71268Y338558D01*
X71320Y338616D01*
X71378Y338666D01*
X71414Y338720D01*
X71457Y338768D01*
X71490Y338837D01*
X71533Y338902D01*
X71552Y338964D01*
X71580Y339021D01*
X71591Y339091D01*
X71615Y339172D01*
X71616Y339257D01*
X71627Y339326D01*
X71627Y342729D01*
X71614Y342824D01*
X71609Y342920D01*
X71594Y342963D01*
X71587Y343008D01*
X71548Y343096D01*
X71516Y343187D01*
X71491Y343221D01*
X71471Y343265D01*
X71388Y343362D01*
X71335Y343436D01*
X70685Y344085D01*
X69877Y346035D01*
X69877Y348147D01*
X70685Y350097D01*
X72178Y351590D01*
X74128Y352398D01*
X76240Y352398D01*
X78190Y351590D01*
X79683Y350097D01*
X80491Y348147D01*
X80491Y346035D01*
X79683Y344085D01*
X79033Y343436D01*
X78976Y343359D01*
X78911Y343287D01*
X78891Y343246D01*
X78864Y343210D01*
X78830Y343120D01*
X78788Y343034D01*
X78782Y342992D01*
X78765Y342946D01*
X78755Y342818D01*
X78741Y342729D01*
X78741Y339326D01*
X78750Y339262D01*
X78749Y339198D01*
X78770Y339123D01*
X78781Y339047D01*
X78807Y338988D01*
X78824Y338926D01*
X78865Y338860D01*
X78897Y338790D01*
X78939Y338741D01*
X78972Y338686D01*
X79030Y338634D01*
X79080Y338576D01*
X79134Y338540D01*
X79182Y338497D01*
X79251Y338464D01*
X79316Y338421D01*
X79378Y338402D01*
X79435Y338374D01*
X79505Y338363D01*
X79586Y338339D01*
X79671Y338338D01*
X79740Y338327D01*
X83443Y338327D01*
X84336Y337434D01*
X84336Y323170D01*
X83432Y322267D01*
X83365Y322256D01*
X83236Y322237D01*
X83227Y322233D01*
X83216Y322231D01*
X83098Y322175D01*
X82980Y322121D01*
X82971Y322114D01*
X82962Y322110D01*
X82864Y322023D01*
X82765Y321938D01*
X82759Y321929D01*
X82751Y321922D01*
X82683Y321811D01*
X82611Y321702D01*
X82608Y321692D01*
X82602Y321682D01*
X82566Y321557D01*
X82528Y321432D01*
X82528Y321421D01*
X82525Y321411D01*
X82526Y321280D01*
X82525Y321150D01*
X82528Y321140D01*
X82528Y321129D01*
X82565Y321004D01*
X82600Y320878D01*
X82606Y320869D01*
X82609Y320859D01*
X82680Y320749D01*
X82748Y320638D01*
X82756Y320631D01*
X82762Y320622D01*
X82861Y320536D01*
X82957Y320449D01*
X82967Y320445D01*
X82975Y320438D01*
X83049Y320405D01*
X83211Y320326D01*
X83235Y320323D01*
X83257Y320313D01*
X83792Y320170D01*
X84371Y319835D01*
X84844Y319362D01*
X85179Y318783D01*
X85352Y318137D01*
X85352Y313301D01*
X76311Y313301D01*
X76247Y313292D01*
X76183Y313293D01*
X76109Y313272D01*
X76032Y313261D01*
X75973Y313235D01*
X75911Y313218D01*
X75845Y313177D01*
X75775Y313145D01*
X75726Y313103D01*
X75671Y313070D01*
X75620Y313012D01*
X75561Y312962D01*
X75525Y312908D01*
X75482Y312860D01*
X75449Y312791D01*
X75406Y312726D01*
X75387Y312664D01*
X75359Y312607D01*
X75349Y312537D01*
X75324Y312456D01*
X75323Y312371D01*
X75312Y312302D01*
X75312Y311301D01*
X75310Y311301D01*
G37*
%LPD*%
%LPC*%
G36*
X398207Y234722D02*
X398207Y234722D01*
X394846Y236114D01*
X392273Y238686D01*
X390881Y242047D01*
X390881Y245685D01*
X392273Y249046D01*
X394846Y251619D01*
X398207Y253011D01*
X417085Y253011D01*
X420446Y251619D01*
X423018Y249046D01*
X424411Y245685D01*
X424411Y242047D01*
X423018Y238686D01*
X420446Y236114D01*
X417085Y234722D01*
X398207Y234722D01*
G37*
%LPD*%
%LPC*%
G36*
X38075Y64429D02*
X38075Y64429D01*
X38075Y90322D01*
X40764Y90019D01*
X43823Y89321D01*
X46785Y88284D01*
X49613Y86923D01*
X52270Y85253D01*
X54724Y83296D01*
X56942Y81078D01*
X58899Y78624D01*
X60569Y75967D01*
X61930Y73139D01*
X62967Y70177D01*
X63665Y67118D01*
X63968Y64429D01*
X38075Y64429D01*
G37*
%LPD*%
%LPC*%
G36*
X38075Y60431D02*
X38075Y60431D01*
X63968Y60431D01*
X63665Y57742D01*
X62967Y54683D01*
X61930Y51721D01*
X60569Y48893D01*
X58899Y46236D01*
X56942Y43782D01*
X54724Y41564D01*
X52270Y39607D01*
X49613Y37937D01*
X46785Y36576D01*
X43823Y35539D01*
X40764Y34841D01*
X38075Y34538D01*
X38075Y60431D01*
G37*
%LPD*%
%LPC*%
G36*
X397312Y64429D02*
X397312Y64429D01*
X397615Y67118D01*
X398313Y70177D01*
X399350Y73139D01*
X400711Y75967D01*
X402381Y78624D01*
X404338Y81078D01*
X406556Y83296D01*
X409010Y85253D01*
X411667Y86923D01*
X414495Y88284D01*
X417457Y89321D01*
X420516Y90019D01*
X423205Y90322D01*
X423205Y64429D01*
X397312Y64429D01*
G37*
%LPD*%
%LPC*%
G36*
X420516Y34841D02*
X420516Y34841D01*
X417457Y35539D01*
X414495Y36576D01*
X411667Y37937D01*
X409010Y39607D01*
X406556Y41564D01*
X404338Y43782D01*
X402381Y46236D01*
X400711Y48893D01*
X399350Y51721D01*
X398313Y54683D01*
X397615Y57742D01*
X397312Y60431D01*
X423205Y60431D01*
X423205Y34538D01*
X420516Y34841D01*
G37*
%LPD*%
%LPC*%
G36*
X301204Y329213D02*
X301204Y329213D01*
X299254Y330021D01*
X297761Y331514D01*
X296953Y333464D01*
X296953Y335576D01*
X297761Y337526D01*
X299254Y339019D01*
X301204Y339827D01*
X303316Y339827D01*
X304848Y339192D01*
X304889Y339181D01*
X304926Y339163D01*
X305011Y339150D01*
X305122Y339122D01*
X305180Y339124D01*
X305231Y339116D01*
X309488Y339116D01*
X309582Y339129D01*
X309679Y339134D01*
X309722Y339149D01*
X309767Y339156D01*
X309780Y339162D01*
X324307Y339162D01*
X325200Y338269D01*
X325200Y330817D01*
X324307Y329924D01*
X309782Y329924D01*
X309750Y329929D01*
X309705Y329946D01*
X309577Y329956D01*
X309488Y329970D01*
X305342Y329970D01*
X305301Y329964D01*
X305259Y329967D01*
X305175Y329947D01*
X305063Y329930D01*
X305009Y329906D01*
X304959Y329894D01*
X303316Y329213D01*
X301204Y329213D01*
G37*
%LPD*%
%LPC*%
G36*
X330251Y339424D02*
X330251Y339424D01*
X329358Y340317D01*
X329358Y347769D01*
X330251Y348662D01*
X342891Y348662D01*
X342955Y348671D01*
X343019Y348670D01*
X343094Y348691D01*
X343171Y348702D01*
X343229Y348728D01*
X343291Y348745D01*
X343357Y348786D01*
X343428Y348818D01*
X343476Y348860D01*
X343531Y348893D01*
X343583Y348951D01*
X343642Y349001D01*
X343677Y349055D01*
X343720Y349103D01*
X343754Y349172D01*
X343796Y349237D01*
X343815Y349299D01*
X343843Y349356D01*
X343854Y349426D01*
X343879Y349507D01*
X343880Y349592D01*
X343891Y349661D01*
X343891Y350253D01*
X344699Y352203D01*
X346191Y353696D01*
X348142Y354504D01*
X350253Y354504D01*
X352203Y353696D01*
X353696Y352203D01*
X354504Y350253D01*
X354504Y348142D01*
X353696Y346191D01*
X353555Y346050D01*
X353497Y345973D01*
X353433Y345902D01*
X353413Y345861D01*
X353386Y345824D01*
X353352Y345734D01*
X353317Y345664D01*
X347632Y339978D01*
X345578Y339978D01*
X345484Y339965D01*
X345387Y339960D01*
X345344Y339945D01*
X345299Y339938D01*
X345212Y339899D01*
X345121Y339867D01*
X345086Y339842D01*
X345042Y339822D01*
X344945Y339739D01*
X344872Y339686D01*
X344611Y339424D01*
X330251Y339424D01*
G37*
%LPD*%
%LPC*%
G36*
X274946Y378686D02*
X274946Y378686D01*
X269887Y383745D01*
X269887Y390900D01*
X274946Y395959D01*
X282101Y395959D01*
X287161Y390900D01*
X287161Y383745D01*
X282101Y378686D01*
X274946Y378686D01*
G37*
%LPD*%
%LPC*%
G36*
X249546Y378686D02*
X249546Y378686D01*
X244487Y383745D01*
X244487Y390900D01*
X249546Y395959D01*
X256701Y395959D01*
X261761Y390900D01*
X261761Y383745D01*
X256701Y378686D01*
X249546Y378686D01*
G37*
%LPD*%
%LPC*%
G36*
X249546Y353286D02*
X249546Y353286D01*
X244487Y358345D01*
X244487Y365500D01*
X249546Y370559D01*
X256701Y370559D01*
X261761Y365500D01*
X261761Y358345D01*
X256701Y353286D01*
X249546Y353286D01*
G37*
%LPD*%
%LPC*%
G36*
X274946Y353286D02*
X274946Y353286D01*
X269887Y358345D01*
X269887Y365500D01*
X274946Y370559D01*
X282101Y370559D01*
X287161Y365500D01*
X287161Y358345D01*
X282101Y353286D01*
X274946Y353286D01*
G37*
%LPD*%
%LPC*%
G36*
X291044Y181383D02*
X291044Y181383D01*
X289094Y182191D01*
X287683Y183603D01*
X287606Y183660D01*
X287534Y183725D01*
X287493Y183745D01*
X287457Y183772D01*
X287367Y183806D01*
X287281Y183848D01*
X287239Y183854D01*
X287193Y183871D01*
X287065Y183881D01*
X286976Y183895D01*
X283632Y183895D01*
X283548Y183883D01*
X283462Y183881D01*
X283409Y183863D01*
X283353Y183855D01*
X283275Y183820D01*
X283194Y183794D01*
X283147Y183762D01*
X283096Y183739D01*
X283031Y183684D01*
X282960Y183636D01*
X282928Y183595D01*
X282882Y183556D01*
X282822Y183465D01*
X282195Y182838D01*
X275184Y189849D01*
X275184Y189850D01*
X268172Y196861D01*
X268763Y197451D01*
X269342Y197786D01*
X269988Y197959D01*
X270293Y197959D01*
X270388Y197973D01*
X270484Y197977D01*
X270528Y197992D01*
X270573Y197999D01*
X270660Y198038D01*
X270751Y198070D01*
X270785Y198095D01*
X270829Y198115D01*
X270927Y198198D01*
X271000Y198252D01*
X273227Y200479D01*
X274490Y200479D01*
X285191Y189777D01*
X285268Y189720D01*
X285339Y189655D01*
X285380Y189635D01*
X285417Y189608D01*
X285507Y189574D01*
X285593Y189532D01*
X285635Y189526D01*
X285681Y189509D01*
X285808Y189499D01*
X285898Y189485D01*
X286976Y189485D01*
X287071Y189498D01*
X287167Y189503D01*
X287210Y189518D01*
X287255Y189525D01*
X287343Y189564D01*
X287434Y189596D01*
X287468Y189621D01*
X287512Y189641D01*
X287609Y189724D01*
X287683Y189777D01*
X289094Y191189D01*
X291044Y191997D01*
X293156Y191997D01*
X295106Y191189D01*
X296599Y189696D01*
X297407Y187746D01*
X297407Y185634D01*
X296599Y183684D01*
X295106Y182191D01*
X293156Y181383D01*
X291044Y181383D01*
G37*
%LPD*%
G36*
X95975Y208127D02*
X95975Y208127D01*
X96039Y208126D01*
X96114Y208147D01*
X96191Y208158D01*
X96249Y208184D01*
X96311Y208201D01*
X96377Y208242D01*
X96448Y208274D01*
X96496Y208316D01*
X96551Y208349D01*
X96603Y208407D01*
X96662Y208457D01*
X96697Y208511D01*
X96740Y208559D01*
X96774Y208628D01*
X96816Y208693D01*
X96835Y208755D01*
X96863Y208812D01*
X96874Y208882D01*
X96899Y208963D01*
X96900Y209048D01*
X96911Y209117D01*
X96911Y218158D01*
X98330Y218158D01*
X98394Y218167D01*
X98458Y218166D01*
X98533Y218187D01*
X98609Y218198D01*
X98668Y218224D01*
X98730Y218241D01*
X98796Y218282D01*
X98866Y218314D01*
X98915Y218355D01*
X98970Y218389D01*
X99022Y218447D01*
X99080Y218497D01*
X99116Y218551D01*
X99159Y218599D01*
X99192Y218668D01*
X99235Y218733D01*
X99254Y218795D01*
X99282Y218852D01*
X99293Y218922D01*
X99317Y219003D01*
X99318Y219088D01*
X99329Y219157D01*
X99329Y221718D01*
X99320Y221782D01*
X99321Y221846D01*
X99300Y221921D01*
X99289Y221997D01*
X99263Y222056D01*
X99246Y222118D01*
X99205Y222184D01*
X99173Y222254D01*
X99131Y222303D01*
X99098Y222358D01*
X99040Y222410D01*
X98990Y222468D01*
X98936Y222504D01*
X98888Y222547D01*
X98819Y222580D01*
X98754Y222623D01*
X98692Y222642D01*
X98635Y222670D01*
X98565Y222681D01*
X98484Y222705D01*
X98399Y222706D01*
X98330Y222717D01*
X96911Y222717D01*
X96911Y231758D01*
X96902Y231819D01*
X96903Y231851D01*
X96902Y231853D01*
X96903Y231886D01*
X96882Y231961D01*
X96871Y232037D01*
X96845Y232096D01*
X96827Y232158D01*
X96787Y232224D01*
X96755Y232294D01*
X96713Y232343D01*
X96679Y232398D01*
X96622Y232450D01*
X96571Y232508D01*
X96518Y232544D01*
X96470Y232587D01*
X96400Y232620D01*
X96335Y232663D01*
X96274Y232682D01*
X96216Y232710D01*
X96147Y232720D01*
X96066Y232745D01*
X95981Y232746D01*
X95912Y232757D01*
X93912Y232757D01*
X93848Y232748D01*
X93784Y232749D01*
X93709Y232728D01*
X93632Y232717D01*
X93574Y232691D01*
X93512Y232674D01*
X93446Y232633D01*
X93375Y232601D01*
X93327Y232559D01*
X93272Y232526D01*
X93220Y232468D01*
X93161Y232418D01*
X93126Y232364D01*
X93083Y232316D01*
X93049Y232247D01*
X93007Y232182D01*
X92988Y232120D01*
X92960Y232063D01*
X92949Y231993D01*
X92924Y231912D01*
X92923Y231827D01*
X92912Y231758D01*
X92912Y222717D01*
X88688Y222717D01*
X88593Y222704D01*
X88497Y222699D01*
X88454Y222684D01*
X88409Y222677D01*
X88322Y222638D01*
X88231Y222606D01*
X88196Y222581D01*
X88152Y222561D01*
X88055Y222478D01*
X87982Y222425D01*
X83993Y218435D01*
X83971Y218431D01*
X83863Y218415D01*
X83833Y218402D01*
X83802Y218396D01*
X83705Y218344D01*
X83606Y218299D01*
X83581Y218278D01*
X83553Y218263D01*
X83475Y218187D01*
X83392Y218116D01*
X83374Y218089D01*
X83351Y218066D01*
X83297Y217971D01*
X83237Y217880D01*
X83228Y217849D01*
X83212Y217821D01*
X83187Y217714D01*
X83155Y217610D01*
X83154Y217578D01*
X83147Y217547D01*
X83152Y217437D01*
X83151Y217328D01*
X83160Y217297D01*
X83161Y217265D01*
X83197Y217162D01*
X83226Y217056D01*
X83243Y217029D01*
X83254Y216998D01*
X83307Y216925D01*
X83374Y216816D01*
X83410Y216784D01*
X83435Y216749D01*
X83947Y216238D01*
X83958Y216171D01*
X83976Y216042D01*
X83981Y216033D01*
X83982Y216022D01*
X84039Y215904D01*
X84092Y215785D01*
X84099Y215777D01*
X84104Y215768D01*
X84191Y215670D01*
X84276Y215571D01*
X84285Y215565D01*
X84292Y215557D01*
X84402Y215488D01*
X84512Y215417D01*
X84522Y215414D01*
X84531Y215408D01*
X84657Y215372D01*
X84781Y215334D01*
X84792Y215334D01*
X84803Y215331D01*
X84933Y215332D01*
X85063Y215331D01*
X85074Y215333D01*
X85085Y215334D01*
X85209Y215371D01*
X85335Y215406D01*
X85344Y215411D01*
X85355Y215415D01*
X85464Y215486D01*
X85575Y215554D01*
X85582Y215562D01*
X85592Y215568D01*
X85677Y215667D01*
X85764Y215763D01*
X85769Y215773D01*
X85776Y215781D01*
X85809Y215855D01*
X85887Y216017D01*
X85891Y216041D01*
X85901Y216063D01*
X86044Y216598D01*
X86379Y217177D01*
X86851Y217650D01*
X87431Y217985D01*
X88077Y218158D01*
X92912Y218158D01*
X92912Y209117D01*
X92921Y209053D01*
X92921Y208989D01*
X92941Y208914D01*
X92952Y208838D01*
X92979Y208779D01*
X92996Y208717D01*
X93037Y208651D01*
X93068Y208581D01*
X93110Y208532D01*
X93144Y208477D01*
X93201Y208425D01*
X93252Y208367D01*
X93306Y208331D01*
X93353Y208288D01*
X93423Y208255D01*
X93488Y208212D01*
X93549Y208193D01*
X93607Y208165D01*
X93676Y208155D01*
X93758Y208130D01*
X93842Y208129D01*
X93912Y208118D01*
X95912Y208118D01*
X95975Y208127D01*
G37*
%LPC*%
G36*
X26129Y209009D02*
X26129Y209009D01*
X26129Y217171D01*
X32550Y217171D01*
X34129Y216921D01*
X35650Y216426D01*
X37075Y215700D01*
X38369Y214760D01*
X39500Y213629D01*
X40440Y212335D01*
X41166Y210910D01*
X41661Y209389D01*
X41721Y209009D01*
X26129Y209009D01*
G37*
%LPD*%
%LPC*%
G36*
X26129Y196849D02*
X26129Y196849D01*
X26129Y205011D01*
X41721Y205011D01*
X41703Y204898D01*
X41661Y204631D01*
X41166Y203110D01*
X40440Y201685D01*
X39500Y200391D01*
X38369Y199260D01*
X37075Y198320D01*
X35650Y197594D01*
X34129Y197099D01*
X32550Y196849D01*
X26129Y196849D01*
G37*
%LPD*%
%LPC*%
G36*
X116071Y34389D02*
X116071Y34389D01*
X113950Y35078D01*
X111963Y36090D01*
X110160Y37401D01*
X108583Y38978D01*
X107272Y40781D01*
X106260Y42768D01*
X105571Y44889D01*
X105362Y46207D01*
X117389Y46207D01*
X117389Y34180D01*
X116071Y34389D01*
G37*
%LPD*%
%LPC*%
G36*
X77310Y302261D02*
X77310Y302261D01*
X77310Y309303D01*
X85352Y309303D01*
X85352Y304467D01*
X85179Y303821D01*
X84844Y303242D01*
X84371Y302769D01*
X83792Y302434D01*
X83146Y302261D01*
X77310Y302261D01*
G37*
%LPD*%
%LPC*%
G36*
X67476Y302261D02*
X67476Y302261D01*
X66830Y302434D01*
X66251Y302769D01*
X65778Y303242D01*
X65443Y303821D01*
X65270Y304467D01*
X65270Y309303D01*
X73312Y309303D01*
X73312Y302261D01*
X67476Y302261D01*
G37*
%LPD*%
%LPC*%
G36*
X229723Y389322D02*
X229723Y389322D01*
X229723Y396975D01*
X231722Y396975D01*
X237377Y391321D01*
X237377Y389322D01*
X229723Y389322D01*
G37*
%LPD*%
%LPC*%
G36*
X229723Y363922D02*
X229723Y363922D01*
X229723Y371575D01*
X231722Y371575D01*
X237377Y365921D01*
X237377Y363922D01*
X229723Y363922D01*
G37*
%LPD*%
%LPC*%
G36*
X218071Y389322D02*
X218071Y389322D01*
X218071Y391321D01*
X223726Y396975D01*
X225725Y396975D01*
X225725Y389322D01*
X218071Y389322D01*
G37*
%LPD*%
%LPC*%
G36*
X218071Y363922D02*
X218071Y363922D01*
X218071Y365921D01*
X223726Y371575D01*
X225725Y371575D01*
X225725Y363922D01*
X218071Y363922D01*
G37*
%LPD*%
%LPC*%
G36*
X229723Y377670D02*
X229723Y377670D01*
X229723Y385323D01*
X237377Y385323D01*
X237377Y383324D01*
X231722Y377670D01*
X229723Y377670D01*
G37*
%LPD*%
%LPC*%
G36*
X229723Y352270D02*
X229723Y352270D01*
X229723Y359923D01*
X237377Y359923D01*
X237377Y357924D01*
X231722Y352270D01*
X229723Y352270D01*
G37*
%LPD*%
%LPC*%
G36*
X223726Y352270D02*
X223726Y352270D01*
X218071Y357924D01*
X218071Y359923D01*
X225725Y359923D01*
X225725Y352270D01*
X223726Y352270D01*
G37*
%LPD*%
%LPC*%
G36*
X223726Y377670D02*
X223726Y377670D01*
X218071Y383324D01*
X218071Y385323D01*
X225725Y385323D01*
X225725Y377670D01*
X223726Y377670D01*
G37*
%LPD*%
%LPC*%
G36*
X318673Y355089D02*
X318673Y355089D01*
X318673Y359178D01*
X324010Y359178D01*
X324656Y359005D01*
X325235Y358670D01*
X325708Y358197D01*
X326043Y357618D01*
X326216Y356972D01*
X326216Y355089D01*
X318673Y355089D01*
G37*
%LPD*%
%LPC*%
G36*
X308038Y355089D02*
X308038Y355089D01*
X308038Y356972D01*
X308211Y357618D01*
X308546Y358197D01*
X309019Y358670D01*
X309598Y359005D01*
X310244Y359178D01*
X315581Y359178D01*
X315581Y355089D01*
X308038Y355089D01*
G37*
%LPD*%
%LPC*%
G36*
X318673Y351997D02*
X318673Y351997D01*
X326216Y351997D01*
X326216Y350114D01*
X326043Y349468D01*
X325708Y348889D01*
X325235Y348416D01*
X324656Y348081D01*
X324010Y347908D01*
X318673Y347908D01*
X318673Y351997D01*
G37*
%LPD*%
%LPC*%
G36*
X310244Y347908D02*
X310244Y347908D01*
X309598Y348081D01*
X309019Y348416D01*
X308546Y348889D01*
X308211Y349468D01*
X308038Y350114D01*
X308038Y351997D01*
X315581Y351997D01*
X315581Y347908D01*
X310244Y347908D01*
G37*
%LPD*%
%LPC*%
G36*
X227723Y361922D02*
X227723Y361922D01*
X227723Y361923D01*
X227725Y361923D01*
X227725Y361922D01*
X227723Y361922D01*
G37*
%LPD*%
%LPC*%
G36*
X227723Y387322D02*
X227723Y387322D01*
X227723Y387323D01*
X227725Y387323D01*
X227725Y387322D01*
X227723Y387322D01*
G37*
%LPD*%
D10*
G36*
X222232Y246338D02*
X211803Y256767D01*
X213924Y258888D01*
X224353Y248459D01*
X222232Y246338D01*
G37*
G36*
X218697Y242802D02*
X208268Y253231D01*
X210389Y255352D01*
X220818Y244923D01*
X218697Y242802D01*
G37*
G36*
X215161Y239267D02*
X204732Y249696D01*
X206853Y251817D01*
X217282Y241388D01*
X215161Y239267D01*
G37*
G36*
X211626Y235731D02*
X201197Y246160D01*
X203318Y248281D01*
X213747Y237852D01*
X211626Y235731D01*
G37*
G36*
X208090Y232195D02*
X197661Y242624D01*
X199782Y244745D01*
X210211Y234316D01*
X208090Y232195D01*
G37*
G36*
X204555Y228660D02*
X194126Y239089D01*
X196247Y241210D01*
X206676Y230781D01*
X204555Y228660D01*
G37*
G36*
X201019Y225124D02*
X190590Y235553D01*
X192711Y237674D01*
X203140Y227245D01*
X201019Y225124D01*
G37*
G36*
X197484Y221589D02*
X187055Y232018D01*
X189176Y234139D01*
X199605Y223710D01*
X197484Y221589D01*
G37*
G36*
X193948Y218053D02*
X183519Y228482D01*
X185640Y230603D01*
X196069Y220174D01*
X193948Y218053D01*
G37*
G36*
X190412Y214518D02*
X179983Y224947D01*
X182104Y227068D01*
X192533Y216639D01*
X190412Y214518D01*
G37*
G36*
X186877Y210982D02*
X176448Y221411D01*
X178569Y223532D01*
X188998Y213103D01*
X186877Y210982D01*
G37*
G36*
X183341Y207447D02*
X172912Y217876D01*
X175033Y219997D01*
X185462Y209568D01*
X183341Y207447D01*
G37*
G36*
X185462Y196832D02*
X175033Y186403D01*
X172912Y188524D01*
X183341Y198953D01*
X185462Y196832D01*
G37*
G36*
X188998Y193297D02*
X178569Y182868D01*
X176448Y184989D01*
X186877Y195418D01*
X188998Y193297D01*
G37*
G36*
X192533Y189761D02*
X182104Y179332D01*
X179983Y181453D01*
X190412Y191882D01*
X192533Y189761D01*
G37*
G36*
X196069Y186226D02*
X185640Y175797D01*
X183519Y177918D01*
X193948Y188347D01*
X196069Y186226D01*
G37*
G36*
X199605Y182690D02*
X189176Y172261D01*
X187055Y174382D01*
X197484Y184811D01*
X199605Y182690D01*
G37*
G36*
X203140Y179155D02*
X192711Y168726D01*
X190590Y170847D01*
X201019Y181276D01*
X203140Y179155D01*
G37*
G36*
X206676Y175619D02*
X196247Y165190D01*
X194126Y167311D01*
X204555Y177740D01*
X206676Y175619D01*
G37*
G36*
X210211Y172084D02*
X199782Y161655D01*
X197661Y163776D01*
X208090Y174205D01*
X210211Y172084D01*
G37*
G36*
X213747Y168548D02*
X203318Y158119D01*
X201197Y160240D01*
X211626Y170669D01*
X213747Y168548D01*
G37*
G36*
X217282Y165012D02*
X206853Y154583D01*
X204732Y156704D01*
X215161Y167133D01*
X217282Y165012D01*
G37*
G36*
X220818Y161477D02*
X210389Y151048D01*
X208268Y153169D01*
X218697Y163598D01*
X220818Y161477D01*
G37*
G36*
X224353Y157941D02*
X213924Y147512D01*
X211803Y149633D01*
X222232Y160062D01*
X224353Y157941D01*
G37*
G36*
X243276Y147512D02*
X232847Y157941D01*
X234968Y160062D01*
X245397Y149633D01*
X243276Y147512D01*
G37*
G36*
X246811Y151048D02*
X236382Y161477D01*
X238503Y163598D01*
X248932Y153169D01*
X246811Y151048D01*
G37*
G36*
X250347Y154583D02*
X239918Y165012D01*
X242039Y167133D01*
X252468Y156704D01*
X250347Y154583D01*
G37*
G36*
X253882Y158119D02*
X243453Y168548D01*
X245574Y170669D01*
X256003Y160240D01*
X253882Y158119D01*
G37*
G36*
X257418Y161655D02*
X246989Y172084D01*
X249110Y174205D01*
X259539Y163776D01*
X257418Y161655D01*
G37*
G36*
X260953Y165190D02*
X250524Y175619D01*
X252645Y177740D01*
X263074Y167311D01*
X260953Y165190D01*
G37*
G36*
X264489Y168726D02*
X254060Y179155D01*
X256181Y181276D01*
X266610Y170847D01*
X264489Y168726D01*
G37*
G36*
X268024Y172261D02*
X257595Y182690D01*
X259716Y184811D01*
X270145Y174382D01*
X268024Y172261D01*
G37*
G36*
X271560Y175797D02*
X261131Y186226D01*
X263252Y188347D01*
X273681Y177918D01*
X271560Y175797D01*
G37*
G36*
X275096Y179332D02*
X264667Y189761D01*
X266788Y191882D01*
X277217Y181453D01*
X275096Y179332D01*
G37*
G36*
X278631Y182868D02*
X268202Y193297D01*
X270323Y195418D01*
X280752Y184989D01*
X278631Y182868D01*
G37*
G36*
X282167Y186403D02*
X271738Y196832D01*
X273859Y198953D01*
X284288Y188524D01*
X282167Y186403D01*
G37*
G36*
X284288Y217876D02*
X273859Y207447D01*
X271738Y209568D01*
X282167Y219997D01*
X284288Y217876D01*
G37*
G36*
X280752Y221411D02*
X270323Y210982D01*
X268202Y213103D01*
X278631Y223532D01*
X280752Y221411D01*
G37*
G36*
X277217Y224947D02*
X266788Y214518D01*
X264667Y216639D01*
X275096Y227068D01*
X277217Y224947D01*
G37*
G36*
X273681Y228482D02*
X263252Y218053D01*
X261131Y220174D01*
X271560Y230603D01*
X273681Y228482D01*
G37*
G36*
X270145Y232018D02*
X259716Y221589D01*
X257595Y223710D01*
X268024Y234139D01*
X270145Y232018D01*
G37*
G36*
X266610Y235553D02*
X256181Y225124D01*
X254060Y227245D01*
X264489Y237674D01*
X266610Y235553D01*
G37*
G36*
X263074Y239089D02*
X252645Y228660D01*
X250524Y230781D01*
X260953Y241210D01*
X263074Y239089D01*
G37*
G36*
X259539Y242624D02*
X249110Y232195D01*
X246989Y234316D01*
X257418Y244745D01*
X259539Y242624D01*
G37*
G36*
X256003Y246160D02*
X245574Y235731D01*
X243453Y237852D01*
X253882Y248281D01*
X256003Y246160D01*
G37*
G36*
X252468Y249696D02*
X242039Y239267D01*
X239918Y241388D01*
X250347Y251817D01*
X252468Y249696D01*
G37*
G36*
X248932Y253231D02*
X238503Y242802D01*
X236382Y244923D01*
X246811Y255352D01*
X248932Y253231D01*
G37*
G36*
X245397Y256767D02*
X234968Y246338D01*
X232847Y248459D01*
X243276Y258888D01*
X245397Y256767D01*
G37*
D11*
X354084Y76654D03*
X326398Y76654D03*
X298966Y76654D03*
X271280Y76654D03*
X243594Y76654D03*
X216162Y76654D03*
X188476Y76654D03*
X160790Y76654D03*
X133358Y76654D03*
X105672Y76654D03*
X340368Y48206D03*
X312682Y48206D03*
X284996Y48206D03*
X257564Y48206D03*
X229878Y48206D03*
X202192Y48206D03*
X174760Y48206D03*
X147074Y48206D03*
X119388Y48206D03*
D12*
X36076Y62430D03*
X425204Y62430D03*
D13*
X125730Y210820D03*
X125730Y162560D03*
D14*
X75311Y330302D03*
X75311Y311302D03*
D15*
X400026Y243866D02*
X415266Y243866D01*
X415266Y218466D02*
X400026Y218466D01*
X400026Y193066D02*
X415266Y193066D01*
X415266Y167666D02*
X400026Y167666D01*
X395196Y145981D02*
X395196Y130741D01*
X420596Y130741D02*
X420596Y145981D01*
D16*
X278524Y361923D03*
X278524Y387323D03*
X253124Y361923D03*
X253124Y387323D03*
X227724Y361923D03*
X227724Y387323D03*
D17*
X74361Y182960D03*
X18481Y182960D03*
X18481Y152480D03*
X74361Y152480D03*
D18*
X94912Y208117D03*
X75912Y208117D03*
X94912Y232758D03*
X75912Y232758D03*
D15*
X31750Y232410D02*
X16510Y232410D01*
X16510Y207010D02*
X31750Y207010D01*
D19*
X317127Y353543D03*
X317127Y334543D03*
X337431Y344043D03*
D20*
X184150Y308097D02*
X180412Y311835D01*
X103555Y311835D02*
X24130Y232410D01*
X103555Y311835D02*
X180412Y311835D01*
X184150Y286541D02*
X218078Y252613D01*
X184150Y286541D02*
X184150Y308097D01*
X177800Y285820D02*
X214543Y249077D01*
X177800Y285820D02*
X177800Y305529D01*
D21*
X177800Y305529D03*
D20*
X199200Y257238D02*
X92710Y257238D01*
X75912Y240440D01*
X75912Y232758D01*
X210897Y245542D02*
X211007Y245542D01*
X210897Y245542D02*
X199200Y257238D01*
X75912Y232758D02*
X68928Y232758D01*
X65471Y229301D01*
X65471Y185500D01*
X68011Y182960D02*
X74361Y182960D01*
X68011Y182960D02*
X65471Y185500D01*
X94964Y253714D02*
X195653Y253714D01*
X207361Y242006D02*
X207472Y242006D01*
X207361Y242006D02*
X195653Y253714D01*
X85507Y244257D02*
X85507Y223520D01*
X76200Y208117D02*
X75912Y208117D01*
X84802Y193040D02*
X84802Y163830D01*
X85507Y244257D02*
X94964Y253714D01*
X74361Y153389D02*
X74361Y152480D01*
X74361Y153389D02*
X84802Y163830D01*
X82967Y220980D02*
X85507Y223520D01*
X82967Y220980D02*
X80010Y220980D01*
X76200Y217170D01*
X76200Y208117D01*
X75912Y208117D02*
X75912Y198408D01*
X78740Y195580D02*
X81280Y195580D01*
X78740Y195580D02*
X75912Y198408D01*
X82262Y195580D02*
X84802Y193040D01*
X82262Y195580D02*
X81280Y195580D01*
X125730Y210820D02*
X127000Y210820D01*
X146050Y219710D02*
X176530Y250190D01*
X146050Y219710D02*
X143510Y217170D01*
X192217Y250190D02*
X203936Y238470D01*
X192217Y250190D02*
X176530Y250190D01*
X143510Y217170D02*
X143510Y217074D01*
X141256Y214820D01*
X141256Y195580D01*
X138573Y192897D01*
X132080Y195580D02*
X132080Y205740D01*
X127000Y210820D01*
X134763Y192897D02*
X138573Y192897D01*
X134763Y192897D02*
X132080Y195580D01*
X144780Y213360D02*
X177800Y246380D01*
X188956Y246380D01*
X200401Y234935D01*
X144780Y181610D02*
X125730Y162560D01*
X144780Y181610D02*
X144780Y213360D01*
D21*
X324587Y222250D03*
D20*
X324587Y241833D01*
X292100Y274320D01*
X203275Y226135D02*
X203200Y226060D01*
X203275Y226135D02*
X206870Y226135D01*
X255055Y274320D02*
X292100Y274320D01*
X255055Y274320D02*
X206870Y226135D01*
X203200Y226060D02*
X202204Y226060D01*
X196865Y231399D01*
D21*
X171843Y181522D03*
D20*
X175102Y181522D01*
X182723Y189143D01*
D21*
X164026Y171406D03*
D20*
X172057Y171406D01*
X186258Y185607D01*
D21*
X170180Y163830D03*
D20*
X171552Y163830D01*
X189794Y182072D01*
D21*
X182550Y165610D03*
D20*
X186980Y172186D02*
X193330Y178536D01*
X186980Y172186D02*
X186980Y167500D01*
X185090Y165610D01*
X182550Y165610D01*
X184952Y141874D02*
X184952Y93980D01*
X167626Y76654D01*
X160790Y76654D01*
X184952Y141874D02*
X207472Y164394D01*
X211007Y160858D02*
X188476Y138327D01*
X188476Y76654D01*
X407646Y218466D02*
X426694Y218466D01*
X431560Y213600D01*
X431560Y187177D01*
X280803Y175745D02*
X270942Y185607D01*
X308194Y175745D02*
X312420Y179972D01*
X308194Y175745D02*
X280803Y175745D01*
X424355Y179972D02*
X431560Y187177D01*
X424355Y179972D02*
X312420Y179972D01*
X318531Y172221D02*
X334500Y156252D01*
X277256Y172221D02*
X267406Y182072D01*
X277256Y172221D02*
X314960Y172221D01*
X318008Y172221D01*
X318531Y172221D01*
D21*
X314960Y172221D03*
D20*
X334500Y156252D02*
X426678Y156252D01*
X435610Y147320D01*
X435610Y124460D01*
X373655Y62505D02*
X214630Y62505D01*
X202192Y50067D01*
X202192Y48206D01*
X373655Y62505D02*
X435610Y124460D01*
D21*
X303530Y140970D03*
D20*
X301437Y140970D01*
X263870Y178536D01*
X391386Y134551D02*
X395196Y138361D01*
X391386Y134551D02*
X300785Y134551D01*
X260335Y175001D01*
X258180Y170195D02*
X258069Y170195D01*
X256799Y171465D01*
X258180Y170195D02*
X297348Y131027D01*
X374434Y131027D01*
X389890Y115570D02*
X402590Y115570D01*
X420596Y133576D01*
X420596Y138361D01*
X389890Y115570D02*
X374434Y131027D01*
X328072Y93122D02*
X253264Y167930D01*
X328072Y93122D02*
X337616Y93122D01*
X354084Y76654D01*
X298966Y76654D02*
X283726Y91894D01*
X265078Y91894D01*
X259888Y97084D01*
X259888Y154234D01*
X249728Y164394D01*
X256040Y91894D02*
X271280Y76654D01*
X256040Y91894D02*
X256040Y151011D01*
X246193Y160858D01*
X251460Y92140D02*
X243594Y84274D01*
X243594Y76654D01*
X251460Y148520D02*
X242657Y157323D01*
X251460Y148520D02*
X251460Y92140D01*
X247650Y96520D02*
X243024Y91894D01*
X233942Y91894D02*
X218702Y76654D01*
X216162Y76654D01*
X233942Y91894D02*
X243024Y91894D01*
X247650Y96520D02*
X247650Y145259D01*
X239122Y153787D01*
X232645Y231994D02*
X246193Y245542D01*
X232645Y231994D02*
X229652Y231994D01*
X203299Y205641D01*
D22*
X202610Y204952D01*
X177580Y204952D01*
X154006Y181378D02*
X154006Y105579D01*
X91573Y82494D02*
X91573Y70814D01*
X99832Y62555D01*
X103993Y94914D02*
X143341Y94914D01*
X103993Y94914D02*
X91573Y82494D01*
X119259Y62555D02*
X133358Y76654D01*
X154006Y181378D02*
X177580Y204952D01*
X154006Y105579D02*
X143341Y94914D01*
X119259Y62555D02*
X99832Y62555D01*
D20*
X236192Y228470D02*
X249728Y242006D01*
X236192Y228470D02*
X231112Y228470D01*
X157480Y179939D02*
X157480Y104140D01*
X144780Y91440D01*
X105672Y85544D02*
X105672Y76654D01*
X105672Y85544D02*
X111568Y91440D01*
X144780Y91440D01*
X179019Y201478D02*
X204120Y201478D01*
X231112Y228470D01*
X179019Y201478D02*
X157480Y179939D01*
D21*
X236220Y191770D03*
D20*
X236220Y214356D01*
X256799Y234935D01*
D21*
X243281Y198831D03*
D20*
X243281Y214346D01*
X260335Y231399D01*
X285525Y221234D02*
X296926Y221234D01*
X285525Y221234D02*
X278013Y213722D01*
X325094Y193066D02*
X407646Y193066D01*
X325094Y193066D02*
X296926Y221234D01*
D21*
X172720Y209550D03*
X204470Y118110D03*
X238760Y118110D03*
X229870Y172720D03*
X313436Y147955D03*
X381000Y217170D03*
X290449Y243586D03*
X290322Y199009D03*
X264160Y309880D03*
X167640Y118110D03*
X334391Y224028D03*
X308229Y221742D03*
X433070Y232410D03*
X378460Y114300D03*
X237490Y312420D03*
X381000Y186690D03*
X311150Y91440D03*
X288290Y165100D03*
X349197Y349197D03*
D23*
X349197Y347292D01*
X345948Y344043D02*
X337431Y344043D01*
X345948Y344043D02*
X349197Y347292D01*
D24*
X75184Y347091D02*
X75184Y344170D01*
X75184Y330429D01*
X75311Y330302D01*
D21*
X75184Y347091D03*
X180340Y233680D03*
D25*
X180442Y233680D01*
X189794Y224328D01*
X223647Y159356D02*
X218078Y153787D01*
X223647Y168173D02*
X219100Y172720D01*
D21*
X219100Y172720D03*
D25*
X223647Y168173D02*
X223647Y159356D01*
X278013Y192678D02*
X284001Y186690D01*
X292100Y186690D01*
D21*
X292100Y186690D03*
X285750Y267970D03*
D20*
X254479Y267970D02*
X239122Y252613D01*
X254479Y267970D02*
X285750Y267970D01*
D26*
X302283Y334543D02*
X317127Y334543D01*
X302283Y334543D02*
X302260Y334520D01*
D21*
X302260Y334520D03*
D20*
X236957Y222164D02*
X233724Y222164D01*
X236957Y222164D02*
X253264Y238470D01*
D21*
X233724Y222164D03*
D20*
X210820Y174813D02*
X203936Y167930D01*
X210820Y180340D02*
X210820Y194310D01*
D21*
X210820Y194310D03*
D20*
X210820Y180340D02*
X210820Y174813D01*
X186646Y236292D02*
X182952Y239986D01*
X186646Y234547D02*
X193330Y227864D01*
X186646Y234547D02*
X186646Y236292D01*
X182952Y239986D02*
X176390Y239986D01*
X148304Y211900D01*
D21*
X146050Y137160D03*
D20*
X148304Y139414D02*
X148304Y211900D01*
X148304Y139414D02*
X146050Y137160D01*
M02*
