G04 EAGLE Gerber RS-274X export*
G75*
%MOMM*%
%FSLAX34Y34*%
%LPD*%
%INSolderpaste Top*%
%IPPOS*%
%AMOC8*
5,1,8,0,0,1.08239X$1,22.5*%
G01*
%ADD10R,1.475000X0.300000*%
%ADD11R,1.500000X1.300000*%
%ADD12R,1.270000X1.879600*%
%ADD13R,1.300000X1.500000*%
%ADD14R,1.309600X0.618800*%


D10*
G36*
X222232Y246338D02*
X211803Y256767D01*
X213924Y258888D01*
X224353Y248459D01*
X222232Y246338D01*
G37*
G36*
X218697Y242802D02*
X208268Y253231D01*
X210389Y255352D01*
X220818Y244923D01*
X218697Y242802D01*
G37*
G36*
X215161Y239267D02*
X204732Y249696D01*
X206853Y251817D01*
X217282Y241388D01*
X215161Y239267D01*
G37*
G36*
X211626Y235731D02*
X201197Y246160D01*
X203318Y248281D01*
X213747Y237852D01*
X211626Y235731D01*
G37*
G36*
X208090Y232195D02*
X197661Y242624D01*
X199782Y244745D01*
X210211Y234316D01*
X208090Y232195D01*
G37*
G36*
X204555Y228660D02*
X194126Y239089D01*
X196247Y241210D01*
X206676Y230781D01*
X204555Y228660D01*
G37*
G36*
X201019Y225124D02*
X190590Y235553D01*
X192711Y237674D01*
X203140Y227245D01*
X201019Y225124D01*
G37*
G36*
X197484Y221589D02*
X187055Y232018D01*
X189176Y234139D01*
X199605Y223710D01*
X197484Y221589D01*
G37*
G36*
X193948Y218053D02*
X183519Y228482D01*
X185640Y230603D01*
X196069Y220174D01*
X193948Y218053D01*
G37*
G36*
X190412Y214518D02*
X179983Y224947D01*
X182104Y227068D01*
X192533Y216639D01*
X190412Y214518D01*
G37*
G36*
X186877Y210982D02*
X176448Y221411D01*
X178569Y223532D01*
X188998Y213103D01*
X186877Y210982D01*
G37*
G36*
X183341Y207447D02*
X172912Y217876D01*
X175033Y219997D01*
X185462Y209568D01*
X183341Y207447D01*
G37*
G36*
X185462Y196832D02*
X175033Y186403D01*
X172912Y188524D01*
X183341Y198953D01*
X185462Y196832D01*
G37*
G36*
X188998Y193297D02*
X178569Y182868D01*
X176448Y184989D01*
X186877Y195418D01*
X188998Y193297D01*
G37*
G36*
X192533Y189761D02*
X182104Y179332D01*
X179983Y181453D01*
X190412Y191882D01*
X192533Y189761D01*
G37*
G36*
X196069Y186226D02*
X185640Y175797D01*
X183519Y177918D01*
X193948Y188347D01*
X196069Y186226D01*
G37*
G36*
X199605Y182690D02*
X189176Y172261D01*
X187055Y174382D01*
X197484Y184811D01*
X199605Y182690D01*
G37*
G36*
X203140Y179155D02*
X192711Y168726D01*
X190590Y170847D01*
X201019Y181276D01*
X203140Y179155D01*
G37*
G36*
X206676Y175619D02*
X196247Y165190D01*
X194126Y167311D01*
X204555Y177740D01*
X206676Y175619D01*
G37*
G36*
X210211Y172084D02*
X199782Y161655D01*
X197661Y163776D01*
X208090Y174205D01*
X210211Y172084D01*
G37*
G36*
X213747Y168548D02*
X203318Y158119D01*
X201197Y160240D01*
X211626Y170669D01*
X213747Y168548D01*
G37*
G36*
X217282Y165012D02*
X206853Y154583D01*
X204732Y156704D01*
X215161Y167133D01*
X217282Y165012D01*
G37*
G36*
X220818Y161477D02*
X210389Y151048D01*
X208268Y153169D01*
X218697Y163598D01*
X220818Y161477D01*
G37*
G36*
X224353Y157941D02*
X213924Y147512D01*
X211803Y149633D01*
X222232Y160062D01*
X224353Y157941D01*
G37*
G36*
X243276Y147512D02*
X232847Y157941D01*
X234968Y160062D01*
X245397Y149633D01*
X243276Y147512D01*
G37*
G36*
X246811Y151048D02*
X236382Y161477D01*
X238503Y163598D01*
X248932Y153169D01*
X246811Y151048D01*
G37*
G36*
X250347Y154583D02*
X239918Y165012D01*
X242039Y167133D01*
X252468Y156704D01*
X250347Y154583D01*
G37*
G36*
X253882Y158119D02*
X243453Y168548D01*
X245574Y170669D01*
X256003Y160240D01*
X253882Y158119D01*
G37*
G36*
X257418Y161655D02*
X246989Y172084D01*
X249110Y174205D01*
X259539Y163776D01*
X257418Y161655D01*
G37*
G36*
X260953Y165190D02*
X250524Y175619D01*
X252645Y177740D01*
X263074Y167311D01*
X260953Y165190D01*
G37*
G36*
X264489Y168726D02*
X254060Y179155D01*
X256181Y181276D01*
X266610Y170847D01*
X264489Y168726D01*
G37*
G36*
X268024Y172261D02*
X257595Y182690D01*
X259716Y184811D01*
X270145Y174382D01*
X268024Y172261D01*
G37*
G36*
X271560Y175797D02*
X261131Y186226D01*
X263252Y188347D01*
X273681Y177918D01*
X271560Y175797D01*
G37*
G36*
X275096Y179332D02*
X264667Y189761D01*
X266788Y191882D01*
X277217Y181453D01*
X275096Y179332D01*
G37*
G36*
X278631Y182868D02*
X268202Y193297D01*
X270323Y195418D01*
X280752Y184989D01*
X278631Y182868D01*
G37*
G36*
X282167Y186403D02*
X271738Y196832D01*
X273859Y198953D01*
X284288Y188524D01*
X282167Y186403D01*
G37*
G36*
X284288Y217876D02*
X273859Y207447D01*
X271738Y209568D01*
X282167Y219997D01*
X284288Y217876D01*
G37*
G36*
X280752Y221411D02*
X270323Y210982D01*
X268202Y213103D01*
X278631Y223532D01*
X280752Y221411D01*
G37*
G36*
X277217Y224947D02*
X266788Y214518D01*
X264667Y216639D01*
X275096Y227068D01*
X277217Y224947D01*
G37*
G36*
X273681Y228482D02*
X263252Y218053D01*
X261131Y220174D01*
X271560Y230603D01*
X273681Y228482D01*
G37*
G36*
X270145Y232018D02*
X259716Y221589D01*
X257595Y223710D01*
X268024Y234139D01*
X270145Y232018D01*
G37*
G36*
X266610Y235553D02*
X256181Y225124D01*
X254060Y227245D01*
X264489Y237674D01*
X266610Y235553D01*
G37*
G36*
X263074Y239089D02*
X252645Y228660D01*
X250524Y230781D01*
X260953Y241210D01*
X263074Y239089D01*
G37*
G36*
X259539Y242624D02*
X249110Y232195D01*
X246989Y234316D01*
X257418Y244745D01*
X259539Y242624D01*
G37*
G36*
X256003Y246160D02*
X245574Y235731D01*
X243453Y237852D01*
X253882Y248281D01*
X256003Y246160D01*
G37*
G36*
X252468Y249696D02*
X242039Y239267D01*
X239918Y241388D01*
X250347Y251817D01*
X252468Y249696D01*
G37*
G36*
X248932Y253231D02*
X238503Y242802D01*
X236382Y244923D01*
X246811Y255352D01*
X248932Y253231D01*
G37*
G36*
X245397Y256767D02*
X234968Y246338D01*
X232847Y248459D01*
X243276Y258888D01*
X245397Y256767D01*
G37*
D11*
X75311Y330302D03*
X75311Y311302D03*
D12*
X74361Y182960D03*
X18481Y182960D03*
X18481Y152480D03*
X74361Y152480D03*
D13*
X94912Y208117D03*
X75912Y208117D03*
X94912Y232758D03*
X75912Y232758D03*
D14*
X317127Y353543D03*
X317127Y334543D03*
X337431Y344043D03*
M02*
